<?xml version="1.0" encoding="utf-8" standalone="no"?>
<!DOCTYPE svg PUBLIC "-//W3C//DTD SVG 1.1//EN"
  "http://www.w3.org/Graphics/SVG/1.1/DTD/svg11.dtd">
<svg xmlns:xlink="http://www.w3.org/1999/xlink" width="745.001562pt" height="331.634375pt" viewBox="0 0 745.001562 331.634375" xmlns="http://www.w3.org/2000/svg" version="1.1">
 <metadata>
  <rdf:RDF xmlns:dc="http://purl.org/dc/elements/1.1/" xmlns:cc="http://creativecommons.org/ns#" xmlns:rdf="http://www.w3.org/1999/02/22-rdf-syntax-ns#">
   <cc:Work>
    <dc:type rdf:resource="http://purl.org/dc/dcmitype/StillImage"/>
    <dc:date>2025-01-08T17:04:38.849434</dc:date>
    <dc:format>image/svg+xml</dc:format>
    <dc:creator>
     <cc:Agent>
      <dc:title>Matplotlib v3.8.0, https://matplotlib.org/</dc:title>
     </cc:Agent>
    </dc:creator>
   </cc:Work>
  </rdf:RDF>
 </metadata>
 <defs>
  <style type="text/css">*{stroke-linejoin: round; stroke-linecap: butt}</style>
 </defs>
 <g id="figure_1">
  <g id="patch_1">
   <path d="M 0 331.634375 
L 745.001562 331.634375 
L 745.001562 0 
L 0 0 
z
" style="fill: #ffffff"/>
  </g>
  <g id="axes_1">
   <g id="patch_2">
    <path d="M 68.201563 284.4 
L 737.801563 284.4 
L 737.801563 7.2 
L 68.201563 7.2 
z
" style="fill: #ffffff"/>
   </g>
   <g id="PolyCollection_1">
    <path d="M 98.637926 19.8 
L 98.637926 271.8 
L 111.060932 266.858985 
L 123.483937 261.926737 
L 135.906943 257.004424 
L 148.329948 252.093424 
L 160.752954 247.195382 
L 173.17596 242.312271 
L 185.598965 237.446478 
L 198.021971 232.600914 
L 210.444976 227.779168 
L 222.867982 222.985702 
L 235.290987 218.226133 
L 247.713993 213.507609 
L 260.136998 208.839346 
L 272.560004 204.233394 
L 284.98301 199.705726 
L 297.406015 195.277839 
L 309.829021 190.979079 
L 322.252026 186.850033 
L 334.675032 182.947337 
L 347.098037 179.350075 
L 359.521043 176.166986 
L 371.944049 173.541009 
L 384.367054 171.642537 
L 396.79006 170.638947 
L 409.213065 170.638947 
L 421.636071 171.642537 
L 434.059076 173.541009 
L 446.482082 176.166986 
L 458.905088 179.350075 
L 471.328093 182.947337 
L 483.751099 186.850033 
L 496.174104 190.979079 
L 508.59711 195.277839 
L 521.020115 199.705726 
L 533.443121 204.233394 
L 545.866127 208.839346 
L 558.289132 213.507609 
L 570.712138 218.226133 
L 583.135143 222.985702 
L 595.558149 227.779168 
L 607.981154 232.600914 
L 620.40416 237.446478 
L 632.827165 242.312271 
L 645.250171 247.195382 
L 657.673177 252.093424 
L 670.096182 257.004424 
L 682.519188 261.926737 
L 694.942193 266.858985 
L 707.365199 271.8 
L 707.365199 19.8 
L 707.365199 19.8 
L 694.942193 24.741015 
L 682.519188 29.673263 
L 670.096182 34.595576 
L 657.673177 39.506576 
L 645.250171 44.404618 
L 632.827165 49.287729 
L 620.40416 54.153522 
L 607.981154 58.999086 
L 595.558149 63.820832 
L 583.135143 68.614298 
L 570.712138 73.373867 
L 558.289132 78.092391 
L 545.866127 82.760654 
L 533.443121 87.366606 
L 521.020115 91.894274 
L 508.59711 96.322161 
L 496.174104 100.620921 
L 483.751099 104.749967 
L 471.328093 108.652663 
L 458.905088 112.249925 
L 446.482082 115.433014 
L 434.059076 118.058991 
L 421.636071 119.957463 
L 409.213065 120.961053 
L 396.79006 120.961053 
L 384.367054 119.957463 
L 371.944049 118.058991 
L 359.521043 115.433014 
L 347.098037 112.249925 
L 334.675032 108.652663 
L 322.252026 104.749967 
L 309.829021 100.620921 
L 297.406015 96.322161 
L 284.98301 91.894274 
L 272.560004 87.366606 
L 260.136998 82.760654 
L 247.713993 78.092391 
L 235.290987 73.373867 
L 222.867982 68.614298 
L 210.444976 63.820832 
L 198.021971 58.999086 
L 185.598965 54.153522 
L 173.17596 49.287729 
L 160.752954 44.404618 
L 148.329948 39.506576 
L 135.906943 34.595576 
L 123.483937 29.673263 
L 111.060932 24.741015 
L 98.637926 19.8 
z
" clip-path="url(#pd1b6d1e94f)" style="fill: #1f77b4; fill-opacity: 0.25"/>
   </g>
   <g id="matplotlib.axis_1">
    <g id="xtick_1">
     <g id="line2d_1">
      <defs>
       <path id="me24e518a2d" d="M 0 0 
L 0 3.5 
" style="stroke: #000000; stroke-width: 0.8"/>
      </defs>
      <g>
       <use xlink:href="#me24e518a2d" x="159.510653" y="284.4" style="stroke: #000000; stroke-width: 0.8"/>
      </g>
     </g>
     <g id="text_1">
      <!-- −4 -->
      <g transform="translate(152.13956 298.998437) scale(0.1 -0.1)">
       <defs>
        <path id="DejaVuSans-2212" d="M 678 2272 
L 4684 2272 
L 4684 1741 
L 678 1741 
L 678 2272 
z
" transform="scale(0.015625)"/>
        <path id="DejaVuSans-34" d="M 2419 4116 
L 825 1625 
L 2419 1625 
L 2419 4116 
z
M 2253 4666 
L 3047 4666 
L 3047 1625 
L 3713 1625 
L 3713 1100 
L 3047 1100 
L 3047 0 
L 2419 0 
L 2419 1100 
L 313 1100 
L 313 1709 
L 2253 4666 
z
" transform="scale(0.015625)"/>
       </defs>
       <use xlink:href="#DejaVuSans-2212"/>
       <use xlink:href="#DejaVuSans-34" x="83.789062"/>
      </g>
     </g>
    </g>
    <g id="xtick_2">
     <g id="line2d_2">
      <g>
       <use xlink:href="#me24e518a2d" x="281.256108" y="284.4" style="stroke: #000000; stroke-width: 0.8"/>
      </g>
     </g>
     <g id="text_2">
      <!-- −2 -->
      <g transform="translate(273.885014 298.998437) scale(0.1 -0.1)">
       <defs>
        <path id="DejaVuSans-32" d="M 1228 531 
L 3431 531 
L 3431 0 
L 469 0 
L 469 531 
Q 828 903 1448 1529 
Q 2069 2156 2228 2338 
Q 2531 2678 2651 2914 
Q 2772 3150 2772 3378 
Q 2772 3750 2511 3984 
Q 2250 4219 1831 4219 
Q 1534 4219 1204 4116 
Q 875 4013 500 3803 
L 500 4441 
Q 881 4594 1212 4672 
Q 1544 4750 1819 4750 
Q 2544 4750 2975 4387 
Q 3406 4025 3406 3419 
Q 3406 3131 3298 2873 
Q 3191 2616 2906 2266 
Q 2828 2175 2409 1742 
Q 1991 1309 1228 531 
z
" transform="scale(0.015625)"/>
       </defs>
       <use xlink:href="#DejaVuSans-2212"/>
       <use xlink:href="#DejaVuSans-32" x="83.789062"/>
      </g>
     </g>
    </g>
    <g id="xtick_3">
     <g id="line2d_3">
      <g>
       <use xlink:href="#me24e518a2d" x="403.001563" y="284.4" style="stroke: #000000; stroke-width: 0.8"/>
      </g>
     </g>
     <g id="text_3">
      <!-- 0 -->
      <g transform="translate(399.820313 298.998437) scale(0.1 -0.1)">
       <defs>
        <path id="DejaVuSans-30" d="M 2034 4250 
Q 1547 4250 1301 3770 
Q 1056 3291 1056 2328 
Q 1056 1369 1301 889 
Q 1547 409 2034 409 
Q 2525 409 2770 889 
Q 3016 1369 3016 2328 
Q 3016 3291 2770 3770 
Q 2525 4250 2034 4250 
z
M 2034 4750 
Q 2819 4750 3233 4129 
Q 3647 3509 3647 2328 
Q 3647 1150 3233 529 
Q 2819 -91 2034 -91 
Q 1250 -91 836 529 
Q 422 1150 422 2328 
Q 422 3509 836 4129 
Q 1250 4750 2034 4750 
z
" transform="scale(0.015625)"/>
       </defs>
       <use xlink:href="#DejaVuSans-30"/>
      </g>
     </g>
    </g>
    <g id="xtick_4">
     <g id="line2d_4">
      <g>
       <use xlink:href="#me24e518a2d" x="524.747017" y="284.4" style="stroke: #000000; stroke-width: 0.8"/>
      </g>
     </g>
     <g id="text_4">
      <!-- 2 -->
      <g transform="translate(521.565767 298.998437) scale(0.1 -0.1)">
       <use xlink:href="#DejaVuSans-32"/>
      </g>
     </g>
    </g>
    <g id="xtick_5">
     <g id="line2d_5">
      <g>
       <use xlink:href="#me24e518a2d" x="646.492472" y="284.4" style="stroke: #000000; stroke-width: 0.8"/>
      </g>
     </g>
     <g id="text_5">
      <!-- 4 -->
      <g transform="translate(643.311222 298.998437) scale(0.1 -0.1)">
       <use xlink:href="#DejaVuSans-34"/>
      </g>
     </g>
    </g>
    <g id="text_6">
     <!-- x -->
     <g transform="translate(397.082813 320.275) scale(0.2 -0.2)">
      <defs>
       <path id="DejaVuSans-78" d="M 3513 3500 
L 2247 1797 
L 3578 0 
L 2900 0 
L 1881 1375 
L 863 0 
L 184 0 
L 1544 1831 
L 300 3500 
L 978 3500 
L 1906 2253 
L 2834 3500 
L 3513 3500 
z
" transform="scale(0.015625)"/>
      </defs>
      <use xlink:href="#DejaVuSans-78"/>
     </g>
    </g>
   </g>
   <g id="matplotlib.axis_2">
    <g id="ytick_1">
     <g id="line2d_6">
      <defs>
       <path id="m7af5704803" d="M 0 0 
L -3.5 0 
" style="stroke: #000000; stroke-width: 0.8"/>
      </defs>
      <g>
       <use xlink:href="#m7af5704803" x="68.201563" y="269.353165" style="stroke: #000000; stroke-width: 0.8"/>
      </g>
     </g>
     <g id="text_7">
      <!-- −10.0 -->
      <g transform="translate(30.55625 273.152384) scale(0.1 -0.1)">
       <defs>
        <path id="DejaVuSans-31" d="M 794 531 
L 1825 531 
L 1825 4091 
L 703 3866 
L 703 4441 
L 1819 4666 
L 2450 4666 
L 2450 531 
L 3481 531 
L 3481 0 
L 794 0 
L 794 531 
z
" transform="scale(0.015625)"/>
        <path id="DejaVuSans-2e" d="M 684 794 
L 1344 794 
L 1344 0 
L 684 0 
L 684 794 
z
" transform="scale(0.015625)"/>
       </defs>
       <use xlink:href="#DejaVuSans-2212"/>
       <use xlink:href="#DejaVuSans-31" x="83.789062"/>
       <use xlink:href="#DejaVuSans-30" x="147.412109"/>
       <use xlink:href="#DejaVuSans-2e" x="211.035156"/>
       <use xlink:href="#DejaVuSans-30" x="242.822266"/>
      </g>
     </g>
    </g>
    <g id="ytick_2">
     <g id="line2d_7">
      <g>
       <use xlink:href="#m7af5704803" x="68.201563" y="238.464874" style="stroke: #000000; stroke-width: 0.8"/>
      </g>
     </g>
     <g id="text_8">
      <!-- −7.5 -->
      <g transform="translate(36.91875 242.264093) scale(0.1 -0.1)">
       <defs>
        <path id="DejaVuSans-37" d="M 525 4666 
L 3525 4666 
L 3525 4397 
L 1831 0 
L 1172 0 
L 2766 4134 
L 525 4134 
L 525 4666 
z
" transform="scale(0.015625)"/>
        <path id="DejaVuSans-35" d="M 691 4666 
L 3169 4666 
L 3169 4134 
L 1269 4134 
L 1269 2991 
Q 1406 3038 1543 3061 
Q 1681 3084 1819 3084 
Q 2600 3084 3056 2656 
Q 3513 2228 3513 1497 
Q 3513 744 3044 326 
Q 2575 -91 1722 -91 
Q 1428 -91 1123 -41 
Q 819 9 494 109 
L 494 744 
Q 775 591 1075 516 
Q 1375 441 1709 441 
Q 2250 441 2565 725 
Q 2881 1009 2881 1497 
Q 2881 1984 2565 2268 
Q 2250 2553 1709 2553 
Q 1456 2553 1204 2497 
Q 953 2441 691 2322 
L 691 4666 
z
" transform="scale(0.015625)"/>
       </defs>
       <use xlink:href="#DejaVuSans-2212"/>
       <use xlink:href="#DejaVuSans-37" x="83.789062"/>
       <use xlink:href="#DejaVuSans-2e" x="147.412109"/>
       <use xlink:href="#DejaVuSans-35" x="179.199219"/>
      </g>
     </g>
    </g>
    <g id="ytick_3">
     <g id="line2d_8">
      <g>
       <use xlink:href="#m7af5704803" x="68.201563" y="207.576583" style="stroke: #000000; stroke-width: 0.8"/>
      </g>
     </g>
     <g id="text_9">
      <!-- −5.0 -->
      <g transform="translate(36.91875 211.375801) scale(0.1 -0.1)">
       <use xlink:href="#DejaVuSans-2212"/>
       <use xlink:href="#DejaVuSans-35" x="83.789062"/>
       <use xlink:href="#DejaVuSans-2e" x="147.412109"/>
       <use xlink:href="#DejaVuSans-30" x="179.199219"/>
      </g>
     </g>
    </g>
    <g id="ytick_4">
     <g id="line2d_9">
      <g>
       <use xlink:href="#m7af5704803" x="68.201563" y="176.688291" style="stroke: #000000; stroke-width: 0.8"/>
      </g>
     </g>
     <g id="text_10">
      <!-- −2.5 -->
      <g transform="translate(36.91875 180.48751) scale(0.1 -0.1)">
       <use xlink:href="#DejaVuSans-2212"/>
       <use xlink:href="#DejaVuSans-32" x="83.789062"/>
       <use xlink:href="#DejaVuSans-2e" x="147.412109"/>
       <use xlink:href="#DejaVuSans-35" x="179.199219"/>
      </g>
     </g>
    </g>
    <g id="ytick_5">
     <g id="line2d_10">
      <g>
       <use xlink:href="#m7af5704803" x="68.201563" y="145.8" style="stroke: #000000; stroke-width: 0.8"/>
      </g>
     </g>
     <g id="text_11">
      <!-- 0.0 -->
      <g transform="translate(45.298438 149.599219) scale(0.1 -0.1)">
       <use xlink:href="#DejaVuSans-30"/>
       <use xlink:href="#DejaVuSans-2e" x="63.623047"/>
       <use xlink:href="#DejaVuSans-30" x="95.410156"/>
      </g>
     </g>
    </g>
    <g id="ytick_6">
     <g id="line2d_11">
      <g>
       <use xlink:href="#m7af5704803" x="68.201563" y="114.911709" style="stroke: #000000; stroke-width: 0.8"/>
      </g>
     </g>
     <g id="text_12">
      <!-- 2.5 -->
      <g transform="translate(45.298438 118.710927) scale(0.1 -0.1)">
       <use xlink:href="#DejaVuSans-32"/>
       <use xlink:href="#DejaVuSans-2e" x="63.623047"/>
       <use xlink:href="#DejaVuSans-35" x="95.410156"/>
      </g>
     </g>
    </g>
    <g id="ytick_7">
     <g id="line2d_12">
      <g>
       <use xlink:href="#m7af5704803" x="68.201563" y="84.023417" style="stroke: #000000; stroke-width: 0.8"/>
      </g>
     </g>
     <g id="text_13">
      <!-- 5.0 -->
      <g transform="translate(45.298438 87.822636) scale(0.1 -0.1)">
       <use xlink:href="#DejaVuSans-35"/>
       <use xlink:href="#DejaVuSans-2e" x="63.623047"/>
       <use xlink:href="#DejaVuSans-30" x="95.410156"/>
      </g>
     </g>
    </g>
    <g id="ytick_8">
     <g id="line2d_13">
      <g>
       <use xlink:href="#m7af5704803" x="68.201563" y="53.135126" style="stroke: #000000; stroke-width: 0.8"/>
      </g>
     </g>
     <g id="text_14">
      <!-- 7.5 -->
      <g transform="translate(45.298438 56.934345) scale(0.1 -0.1)">
       <use xlink:href="#DejaVuSans-37"/>
       <use xlink:href="#DejaVuSans-2e" x="63.623047"/>
       <use xlink:href="#DejaVuSans-35" x="95.410156"/>
      </g>
     </g>
    </g>
    <g id="ytick_9">
     <g id="line2d_14">
      <g>
       <use xlink:href="#m7af5704803" x="68.201563" y="22.246835" style="stroke: #000000; stroke-width: 0.8"/>
      </g>
     </g>
     <g id="text_15">
      <!-- 10.0 -->
      <g transform="translate(38.935938 26.046054) scale(0.1 -0.1)">
       <use xlink:href="#DejaVuSans-31"/>
       <use xlink:href="#DejaVuSans-30" x="63.623047"/>
       <use xlink:href="#DejaVuSans-2e" x="127.246094"/>
       <use xlink:href="#DejaVuSans-30" x="159.033203"/>
      </g>
     </g>
    </g>
    <g id="text_16">
     <!-- f(x) -->
     <g transform="translate(22.396875 163.042187) rotate(-90) scale(0.2 -0.2)">
      <defs>
       <path id="DejaVuSans-66" d="M 2375 4863 
L 2375 4384 
L 1825 4384 
Q 1516 4384 1395 4259 
Q 1275 4134 1275 3809 
L 1275 3500 
L 2222 3500 
L 2222 3053 
L 1275 3053 
L 1275 0 
L 697 0 
L 697 3053 
L 147 3053 
L 147 3500 
L 697 3500 
L 697 3744 
Q 697 4328 969 4595 
Q 1241 4863 1831 4863 
L 2375 4863 
z
" transform="scale(0.015625)"/>
       <path id="DejaVuSans-28" d="M 1984 4856 
Q 1566 4138 1362 3434 
Q 1159 2731 1159 2009 
Q 1159 1288 1364 580 
Q 1569 -128 1984 -844 
L 1484 -844 
Q 1016 -109 783 600 
Q 550 1309 550 2009 
Q 550 2706 781 3412 
Q 1013 4119 1484 4856 
L 1984 4856 
z
" transform="scale(0.015625)"/>
       <path id="DejaVuSans-29" d="M 513 4856 
L 1013 4856 
Q 1481 4119 1714 3412 
Q 1947 2706 1947 2009 
Q 1947 1309 1714 600 
Q 1481 -109 1013 -844 
L 513 -844 
Q 928 -128 1133 580 
Q 1338 1288 1338 2009 
Q 1338 2731 1133 3434 
Q 928 4138 513 4856 
z
" transform="scale(0.015625)"/>
      </defs>
      <use xlink:href="#DejaVuSans-66"/>
      <use xlink:href="#DejaVuSans-28" x="35.205078"/>
      <use xlink:href="#DejaVuSans-78" x="74.21875"/>
      <use xlink:href="#DejaVuSans-29" x="133.398438"/>
     </g>
    </g>
   </g>
   <g id="line2d_15">
    <path d="M 98.637926 145.8 
L 111.060932 145.8 
L 123.483937 145.8 
L 135.906943 145.8 
L 148.329948 145.8 
L 160.752954 145.8 
L 173.17596 145.8 
L 185.598965 145.8 
L 198.021971 145.8 
L 210.444976 145.8 
L 222.867982 145.8 
L 235.290987 145.8 
L 247.713993 145.8 
L 260.136998 145.8 
L 272.560004 145.8 
L 284.98301 145.8 
L 297.406015 145.8 
L 309.829021 145.8 
L 322.252026 145.8 
L 334.675032 145.8 
L 347.098037 145.8 
L 359.521043 145.8 
L 371.944049 145.8 
L 384.367054 145.8 
L 396.79006 145.8 
L 409.213065 145.8 
L 421.636071 145.8 
L 434.059076 145.8 
L 446.482082 145.8 
L 458.905088 145.8 
L 471.328093 145.8 
L 483.751099 145.8 
L 496.174104 145.8 
L 508.59711 145.8 
L 521.020115 145.8 
L 533.443121 145.8 
L 545.866127 145.8 
L 558.289132 145.8 
L 570.712138 145.8 
L 583.135143 145.8 
L 595.558149 145.8 
L 607.981154 145.8 
L 620.40416 145.8 
L 632.827165 145.8 
L 645.250171 145.8 
L 657.673177 145.8 
L 670.096182 145.8 
L 682.519188 145.8 
L 694.942193 145.8 
L 707.365199 145.8 
" clip-path="url(#pd1b6d1e94f)" style="fill: none; stroke: #000000; stroke-width: 4; stroke-linecap: square"/>
   </g>
   <g id="line2d_16">
    <path d="M 98.637926 144.426304 
L 111.060932 144.750214 
L 123.483937 145.074124 
L 135.906943 145.398034 
L 148.329948 145.721944 
L 160.752954 146.045854 
L 173.17596 146.369764 
L 185.598965 146.693674 
L 198.021971 147.017583 
L 210.444976 147.341493 
L 222.867982 147.665403 
L 235.290987 147.989313 
L 247.713993 148.313223 
L 260.136998 148.637133 
L 272.560004 148.961043 
L 284.98301 149.284952 
L 297.406015 149.608862 
L 309.829021 149.932772 
L 322.252026 150.256682 
L 334.675032 150.580592 
L 347.098037 150.904502 
L 359.521043 151.228412 
L 371.944049 151.552322 
L 384.367054 151.876231 
L 396.79006 152.200141 
L 409.213065 152.524051 
L 421.636071 152.847961 
L 434.059076 153.171871 
L 446.482082 153.495781 
L 458.905088 153.819691 
L 471.328093 154.143601 
L 483.751099 154.46751 
L 496.174104 154.79142 
L 508.59711 155.11533 
L 521.020115 155.43924 
L 533.443121 155.76315 
L 545.866127 156.08706 
L 558.289132 156.41097 
L 570.712138 156.73488 
L 583.135143 157.058789 
L 595.558149 157.382699 
L 607.981154 157.706609 
L 620.40416 158.030519 
L 632.827165 158.354429 
L 645.250171 158.678339 
L 657.673177 159.002249 
L 670.096182 159.326158 
L 682.519188 159.650068 
L 694.942193 159.973978 
L 707.365199 160.297888 
" clip-path="url(#pd1b6d1e94f)" style="fill: none; stroke: #1f77b4; stroke-width: 1.5; stroke-linecap: square"/>
   </g>
   <g id="line2d_17">
    <path d="M 98.637926 161.20637 
L 111.060932 161.667478 
L 123.483937 162.128586 
L 135.906943 162.589695 
L 148.329948 163.050803 
L 160.752954 163.511911 
L 173.17596 163.973019 
L 185.598965 164.434127 
L 198.021971 164.895235 
L 210.444976 165.356343 
L 222.867982 165.817452 
L 235.290987 166.27856 
L 247.713993 166.739668 
L 260.136998 167.200776 
L 272.560004 167.661884 
L 284.98301 168.122992 
L 297.406015 168.5841 
L 309.829021 169.045208 
L 322.252026 169.506317 
L 334.675032 169.967425 
L 347.098037 170.428533 
L 359.521043 170.889641 
L 371.944049 171.350749 
L 384.367054 171.811857 
L 396.79006 172.272965 
L 409.213065 172.734073 
L 421.636071 173.195182 
L 434.059076 173.65629 
L 446.482082 174.117398 
L 458.905088 174.578506 
L 471.328093 175.039614 
L 483.751099 175.500722 
L 496.174104 175.96183 
L 508.59711 176.422938 
L 521.020115 176.884047 
L 533.443121 177.345155 
L 545.866127 177.806263 
L 558.289132 178.267371 
L 570.712138 178.728479 
L 583.135143 179.189587 
L 595.558149 179.650695 
L 607.981154 180.111803 
L 620.40416 180.572912 
L 632.827165 181.03402 
L 645.250171 181.495128 
L 657.673177 181.956236 
L 670.096182 182.417344 
L 682.519188 182.878452 
L 694.942193 183.33956 
L 707.365199 183.800668 
" clip-path="url(#pd1b6d1e94f)" style="fill: none; stroke: #ff7f0e; stroke-width: 1.5; stroke-linecap: square"/>
   </g>
   <g id="line2d_18">
    <path d="M 98.637926 73.792461 
L 111.060932 76.110022 
L 123.483937 78.427583 
L 135.906943 80.745145 
L 148.329948 83.062706 
L 160.752954 85.380267 
L 173.17596 87.697829 
L 185.598965 90.01539 
L 198.021971 92.332951 
L 210.444976 94.650512 
L 222.867982 96.968074 
L 235.290987 99.285635 
L 247.713993 101.603196 
L 260.136998 103.920758 
L 272.560004 106.238319 
L 284.98301 108.55588 
L 297.406015 110.873441 
L 309.829021 113.191003 
L 322.252026 115.508564 
L 334.675032 117.826125 
L 347.098037 120.143687 
L 359.521043 122.461248 
L 371.944049 124.778809 
L 384.367054 127.09637 
L 396.79006 129.413932 
L 409.213065 131.731493 
L 421.636071 134.049054 
L 434.059076 136.366616 
L 446.482082 138.684177 
L 458.905088 141.001738 
L 471.328093 143.319299 
L 483.751099 145.636861 
L 496.174104 147.954422 
L 508.59711 150.271983 
L 521.020115 152.589545 
L 533.443121 154.907106 
L 545.866127 157.224667 
L 558.289132 159.542229 
L 570.712138 161.85979 
L 583.135143 164.177351 
L 595.558149 166.494912 
L 607.981154 168.812474 
L 620.40416 171.130035 
L 632.827165 173.447596 
L 645.250171 175.765158 
L 657.673177 178.082719 
L 670.096182 180.40028 
L 682.519188 182.717841 
L 694.942193 185.035403 
L 707.365199 187.352964 
" clip-path="url(#pd1b6d1e94f)" style="fill: none; stroke: #2ca02c; stroke-width: 1.5; stroke-linecap: square"/>
   </g>
   <g id="line2d_19">
    <path d="M 98.637926 133.484268 
L 111.060932 134.488975 
L 123.483937 135.493683 
L 135.906943 136.49839 
L 148.329948 137.503097 
L 160.752954 138.507805 
L 173.17596 139.512512 
L 185.598965 140.517219 
L 198.021971 141.521927 
L 210.444976 142.526634 
L 222.867982 143.531341 
L 235.290987 144.536049 
L 247.713993 145.540756 
L 260.136998 146.545463 
L 272.560004 147.550171 
L 284.98301 148.554878 
L 297.406015 149.559585 
L 309.829021 150.564293 
L 322.252026 151.569 
L 334.675032 152.573707 
L 347.098037 153.578415 
L 359.521043 154.583122 
L 371.944049 155.587829 
L 384.367054 156.592536 
L 396.79006 157.597244 
L 409.213065 158.601951 
L 421.636071 159.606658 
L 434.059076 160.611366 
L 446.482082 161.616073 
L 458.905088 162.62078 
L 471.328093 163.625488 
L 483.751099 164.630195 
L 496.174104 165.634902 
L 508.59711 166.63961 
L 521.020115 167.644317 
L 533.443121 168.649024 
L 545.866127 169.653732 
L 558.289132 170.658439 
L 570.712138 171.663146 
L 583.135143 172.667854 
L 595.558149 173.672561 
L 607.981154 174.677268 
L 620.40416 175.681976 
L 632.827165 176.686683 
L 645.250171 177.69139 
L 657.673177 178.696098 
L 670.096182 179.700805 
L 682.519188 180.705512 
L 694.942193 181.71022 
L 707.365199 182.714927 
" clip-path="url(#pd1b6d1e94f)" style="fill: none; stroke: #d62728; stroke-width: 1.5; stroke-linecap: square"/>
   </g>
   <g id="line2d_20">
    <path d="M 98.637926 104.711222 
L 111.060932 104.792914 
L 123.483937 104.874607 
L 135.906943 104.9563 
L 148.329948 105.037993 
L 160.752954 105.119685 
L 173.17596 105.201378 
L 185.598965 105.283071 
L 198.021971 105.364764 
L 210.444976 105.446456 
L 222.867982 105.528149 
L 235.290987 105.609842 
L 247.713993 105.691535 
L 260.136998 105.773227 
L 272.560004 105.85492 
L 284.98301 105.936613 
L 297.406015 106.018306 
L 309.829021 106.099998 
L 322.252026 106.181691 
L 334.675032 106.263384 
L 347.098037 106.345077 
L 359.521043 106.42677 
L 371.944049 106.508462 
L 384.367054 106.590155 
L 396.79006 106.671848 
L 409.213065 106.753541 
L 421.636071 106.835233 
L 434.059076 106.916926 
L 446.482082 106.998619 
L 458.905088 107.080312 
L 471.328093 107.162004 
L 483.751099 107.243697 
L 496.174104 107.32539 
L 508.59711 107.407083 
L 521.020115 107.488775 
L 533.443121 107.570468 
L 545.866127 107.652161 
L 558.289132 107.733854 
L 570.712138 107.815546 
L 583.135143 107.897239 
L 595.558149 107.978932 
L 607.981154 108.060625 
L 620.40416 108.142318 
L 632.827165 108.22401 
L 645.250171 108.305703 
L 657.673177 108.387396 
L 670.096182 108.469089 
L 682.519188 108.550781 
L 694.942193 108.632474 
L 707.365199 108.714167 
" clip-path="url(#pd1b6d1e94f)" style="fill: none; stroke: #9467bd; stroke-width: 1.5; stroke-linecap: square"/>
   </g>
   <g id="line2d_21">
    <path d="M 98.637926 162.20818 
L 111.060932 161.65246 
L 123.483937 161.09674 
L 135.906943 160.54102 
L 148.329948 159.9853 
L 160.752954 159.42958 
L 173.17596 158.873859 
L 185.598965 158.318139 
L 198.021971 157.762419 
L 210.444976 157.206699 
L 222.867982 156.650979 
L 235.290987 156.095259 
L 247.713993 155.539539 
L 260.136998 154.983819 
L 272.560004 154.428099 
L 284.98301 153.872379 
L 297.406015 153.316659 
L 309.829021 152.760938 
L 322.252026 152.205218 
L 334.675032 151.649498 
L 347.098037 151.093778 
L 359.521043 150.538058 
L 371.944049 149.982338 
L 384.367054 149.426618 
L 396.79006 148.870898 
L 409.213065 148.315178 
L 421.636071 147.759458 
L 434.059076 147.203738 
L 446.482082 146.648017 
L 458.905088 146.092297 
L 471.328093 145.536577 
L 483.751099 144.980857 
L 496.174104 144.425137 
L 508.59711 143.869417 
L 521.020115 143.313697 
L 533.443121 142.757977 
L 545.866127 142.202257 
L 558.289132 141.646537 
L 570.712138 141.090817 
L 583.135143 140.535097 
L 595.558149 139.979376 
L 607.981154 139.423656 
L 620.40416 138.867936 
L 632.827165 138.312216 
L 645.250171 137.756496 
L 657.673177 137.200776 
L 670.096182 136.645056 
L 682.519188 136.089336 
L 694.942193 135.533616 
L 707.365199 134.977896 
" clip-path="url(#pd1b6d1e94f)" style="fill: none; stroke: #8c564b; stroke-width: 1.5; stroke-linecap: square"/>
   </g>
   <g id="line2d_22">
    <path d="M 98.637926 234.516775 
L 111.060932 230.846443 
L 123.483937 227.176111 
L 135.906943 223.505779 
L 148.329948 219.835447 
L 160.752954 216.165115 
L 173.17596 212.494783 
L 185.598965 208.824451 
L 198.021971 205.154119 
L 210.444976 201.483787 
L 222.867982 197.813454 
L 235.290987 194.143122 
L 247.713993 190.47279 
L 260.136998 186.802458 
L 272.560004 183.132126 
L 284.98301 179.461794 
L 297.406015 175.791462 
L 309.829021 172.12113 
L 322.252026 168.450798 
L 334.675032 164.780466 
L 347.098037 161.110134 
L 359.521043 157.439802 
L 371.944049 153.76947 
L 384.367054 150.099138 
L 396.79006 146.428806 
L 409.213065 142.758474 
L 421.636071 139.088142 
L 434.059076 135.41781 
L 446.482082 131.747478 
L 458.905088 128.077146 
L 471.328093 124.406814 
L 483.751099 120.736482 
L 496.174104 117.06615 
L 508.59711 113.395818 
L 521.020115 109.725486 
L 533.443121 106.055154 
L 545.866127 102.384822 
L 558.289132 98.71449 
L 570.712138 95.044158 
L 583.135143 91.373826 
L 595.558149 87.703494 
L 607.981154 84.033162 
L 620.40416 80.36283 
L 632.827165 76.692497 
L 645.250171 73.022165 
L 657.673177 69.351833 
L 670.096182 65.681501 
L 682.519188 62.011169 
L 694.942193 58.340837 
L 707.365199 54.670505 
" clip-path="url(#pd1b6d1e94f)" style="fill: none; stroke: #e377c2; stroke-width: 1.5; stroke-linecap: square"/>
   </g>
   <g id="line2d_23">
    <path d="M 98.637926 166.578341 
L 111.060932 165.670684 
L 123.483937 164.763027 
L 135.906943 163.85537 
L 148.329948 162.947713 
L 160.752954 162.040056 
L 173.17596 161.132399 
L 185.598965 160.224742 
L 198.021971 159.317086 
L 210.444976 158.409429 
L 222.867982 157.501772 
L 235.290987 156.594115 
L 247.713993 155.686458 
L 260.136998 154.778801 
L 272.560004 153.871144 
L 284.98301 152.963487 
L 297.406015 152.05583 
L 309.829021 151.148174 
L 322.252026 150.240517 
L 334.675032 149.33286 
L 347.098037 148.425203 
L 359.521043 147.517546 
L 371.944049 146.609889 
L 384.367054 145.702232 
L 396.79006 144.794575 
L 409.213065 143.886918 
L 421.636071 142.979262 
L 434.059076 142.071605 
L 446.482082 141.163948 
L 458.905088 140.256291 
L 471.328093 139.348634 
L 483.751099 138.440977 
L 496.174104 137.53332 
L 508.59711 136.625663 
L 521.020115 135.718006 
L 533.443121 134.81035 
L 545.866127 133.902693 
L 558.289132 132.995036 
L 570.712138 132.087379 
L 583.135143 131.179722 
L 595.558149 130.272065 
L 607.981154 129.364408 
L 620.40416 128.456751 
L 632.827165 127.549094 
L 645.250171 126.641438 
L 657.673177 125.733781 
L 670.096182 124.826124 
L 682.519188 123.918467 
L 694.942193 123.01081 
L 707.365199 122.103153 
" clip-path="url(#pd1b6d1e94f)" style="fill: none; stroke: #7f7f7f; stroke-width: 1.5; stroke-linecap: square"/>
   </g>
   <g id="line2d_24">
    <path d="M 98.637926 244.0689 
L 111.060932 240.57033 
L 123.483937 237.07176 
L 135.906943 233.57319 
L 148.329948 230.07462 
L 160.752954 226.576051 
L 173.17596 223.077481 
L 185.598965 219.578911 
L 198.021971 216.080341 
L 210.444976 212.581771 
L 222.867982 209.083202 
L 235.290987 205.584632 
L 247.713993 202.086062 
L 260.136998 198.587492 
L 272.560004 195.088922 
L 284.98301 191.590353 
L 297.406015 188.091783 
L 309.829021 184.593213 
L 322.252026 181.094643 
L 334.675032 177.596073 
L 347.098037 174.097504 
L 359.521043 170.598934 
L 371.944049 167.100364 
L 384.367054 163.601794 
L 396.79006 160.103225 
L 409.213065 156.604655 
L 421.636071 153.106085 
L 434.059076 149.607515 
L 446.482082 146.108945 
L 458.905088 142.610376 
L 471.328093 139.111806 
L 483.751099 135.613236 
L 496.174104 132.114666 
L 508.59711 128.616096 
L 521.020115 125.117527 
L 533.443121 121.618957 
L 545.866127 118.120387 
L 558.289132 114.621817 
L 570.712138 111.123247 
L 583.135143 107.624678 
L 595.558149 104.126108 
L 607.981154 100.627538 
L 620.40416 97.128968 
L 632.827165 93.630399 
L 645.250171 90.131829 
L 657.673177 86.633259 
L 670.096182 83.134689 
L 682.519188 79.636119 
L 694.942193 76.13755 
L 707.365199 72.63898 
" clip-path="url(#pd1b6d1e94f)" style="fill: none; stroke: #bcbd22; stroke-width: 1.5; stroke-linecap: square"/>
   </g>
   <g id="line2d_25">
    <path d="M 98.637926 134.777662 
L 111.060932 135.004722 
L 123.483937 135.231782 
L 135.906943 135.458842 
L 148.329948 135.685902 
L 160.752954 135.912962 
L 173.17596 136.140022 
L 185.598965 136.367082 
L 198.021971 136.594142 
L 210.444976 136.821202 
L 222.867982 137.048262 
L 235.290987 137.275322 
L 247.713993 137.502382 
L 260.136998 137.729442 
L 272.560004 137.956502 
L 284.98301 138.183562 
L 297.406015 138.410622 
L 309.829021 138.637682 
L 322.252026 138.864742 
L 334.675032 139.091802 
L 347.098037 139.318862 
L 359.521043 139.545921 
L 371.944049 139.772981 
L 384.367054 140.000041 
L 396.79006 140.227101 
L 409.213065 140.454161 
L 421.636071 140.681221 
L 434.059076 140.908281 
L 446.482082 141.135341 
L 458.905088 141.362401 
L 471.328093 141.589461 
L 483.751099 141.816521 
L 496.174104 142.043581 
L 508.59711 142.270641 
L 521.020115 142.497701 
L 533.443121 142.724761 
L 545.866127 142.951821 
L 558.289132 143.178881 
L 570.712138 143.405941 
L 583.135143 143.633001 
L 595.558149 143.860061 
L 607.981154 144.087121 
L 620.40416 144.314181 
L 632.827165 144.541241 
L 645.250171 144.768301 
L 657.673177 144.995361 
L 670.096182 145.222421 
L 682.519188 145.449481 
L 694.942193 145.676541 
L 707.365199 145.903601 
" clip-path="url(#pd1b6d1e94f)" style="fill: none; stroke: #17becf; stroke-width: 1.5; stroke-linecap: square"/>
   </g>
   <g id="patch_3">
    <path d="M 68.201563 284.4 
L 68.201563 7.2 
" style="fill: none; stroke: #000000; stroke-width: 0.8; stroke-linejoin: miter; stroke-linecap: square"/>
   </g>
   <g id="patch_4">
    <path d="M 737.801563 284.4 
L 737.801563 7.2 
" style="fill: none; stroke: #000000; stroke-width: 0.8; stroke-linejoin: miter; stroke-linecap: square"/>
   </g>
   <g id="patch_5">
    <path d="M 68.201563 284.4 
L 737.801563 284.4 
" style="fill: none; stroke: #000000; stroke-width: 0.8; stroke-linejoin: miter; stroke-linecap: square"/>
   </g>
   <g id="patch_6">
    <path d="M 68.201563 7.2 
L 737.801563 7.2 
" style="fill: none; stroke: #000000; stroke-width: 0.8; stroke-linejoin: miter; stroke-linecap: square"/>
   </g>
  </g>
 </g>
 <defs>
  <clipPath id="pd1b6d1e94f">
   <rect x="68.201563" y="7.2" width="669.6" height="277.2"/>
  </clipPath>
 </defs>
</svg>
