<?xml version="1.0" encoding="utf-8" standalone="no"?>
<!DOCTYPE svg PUBLIC "-//W3C//DTD SVG 1.1//EN"
  "http://www.w3.org/Graphics/SVG/1.1/DTD/svg11.dtd">
<svg xmlns:xlink="http://www.w3.org/1999/xlink" width="715.282813pt" height="308.278125pt" viewBox="0 0 715.282813 308.278125" xmlns="http://www.w3.org/2000/svg" version="1.1">
 <metadata>
  <rdf:RDF xmlns:dc="http://purl.org/dc/elements/1.1/" xmlns:cc="http://creativecommons.org/ns#" xmlns:rdf="http://www.w3.org/1999/02/22-rdf-syntax-ns#">
   <cc:Work>
    <dc:type rdf:resource="http://purl.org/dc/dcmitype/StillImage"/>
    <dc:date>2025-01-08T17:04:38.935209</dc:date>
    <dc:format>image/svg+xml</dc:format>
    <dc:creator>
     <cc:Agent>
      <dc:title>Matplotlib v3.8.0, https://matplotlib.org/</dc:title>
     </cc:Agent>
    </dc:creator>
   </cc:Work>
  </rdf:RDF>
 </metadata>
 <defs>
  <style type="text/css">*{stroke-linejoin: round; stroke-linecap: butt}</style>
 </defs>
 <g id="figure_1">
  <g id="patch_1">
   <path d="M 0 308.278125 
L 715.282813 308.278125 
L 715.282813 0 
L 0 0 
z
" style="fill: #ffffff"/>
  </g>
  <g id="axes_1">
   <g id="patch_2">
    <path d="M 38.482813 284.4 
L 708.082813 284.4 
L 708.082813 7.2 
L 38.482813 7.2 
z
" style="fill: #ffffff"/>
   </g>
   <g id="matplotlib.axis_1">
    <g id="xtick_1">
     <g id="line2d_1">
      <defs>
       <path id="m507a2f939c" d="M 0 0 
L 0 3.5 
" style="stroke: #000000; stroke-width: 0.8"/>
      </defs>
      <g>
       <use xlink:href="#m507a2f939c" x="68.919176" y="284.4" style="stroke: #000000; stroke-width: 0.8"/>
      </g>
     </g>
     <g id="text_1">
      <!-- 0 -->
      <g transform="translate(65.737926 298.998438) scale(0.1 -0.1)">
       <defs>
        <path id="DejaVuSans-30" d="M 2034 4250 
Q 1547 4250 1301 3770 
Q 1056 3291 1056 2328 
Q 1056 1369 1301 889 
Q 1547 409 2034 409 
Q 2525 409 2770 889 
Q 3016 1369 3016 2328 
Q 3016 3291 2770 3770 
Q 2525 4250 2034 4250 
z
M 2034 4750 
Q 2819 4750 3233 4129 
Q 3647 3509 3647 2328 
Q 3647 1150 3233 529 
Q 2819 -91 2034 -91 
Q 1250 -91 836 529 
Q 422 1150 422 2328 
Q 422 3509 836 4129 
Q 1250 4750 2034 4750 
z
" transform="scale(0.015625)"/>
       </defs>
       <use xlink:href="#DejaVuSans-30"/>
      </g>
     </g>
    </g>
    <g id="xtick_2">
     <g id="line2d_2">
      <g>
       <use xlink:href="#m507a2f939c" x="190.664631" y="284.4" style="stroke: #000000; stroke-width: 0.8"/>
      </g>
     </g>
     <g id="text_2">
      <!-- 1 -->
      <g transform="translate(187.483381 298.998438) scale(0.1 -0.1)">
       <defs>
        <path id="DejaVuSans-31" d="M 794 531 
L 1825 531 
L 1825 4091 
L 703 3866 
L 703 4441 
L 1819 4666 
L 2450 4666 
L 2450 531 
L 3481 531 
L 3481 0 
L 794 0 
L 794 531 
z
" transform="scale(0.015625)"/>
       </defs>
       <use xlink:href="#DejaVuSans-31"/>
      </g>
     </g>
    </g>
    <g id="xtick_3">
     <g id="line2d_3">
      <g>
       <use xlink:href="#m507a2f939c" x="312.410085" y="284.4" style="stroke: #000000; stroke-width: 0.8"/>
      </g>
     </g>
     <g id="text_3">
      <!-- 2 -->
      <g transform="translate(309.228835 298.998438) scale(0.1 -0.1)">
       <defs>
        <path id="DejaVuSans-32" d="M 1228 531 
L 3431 531 
L 3431 0 
L 469 0 
L 469 531 
Q 828 903 1448 1529 
Q 2069 2156 2228 2338 
Q 2531 2678 2651 2914 
Q 2772 3150 2772 3378 
Q 2772 3750 2511 3984 
Q 2250 4219 1831 4219 
Q 1534 4219 1204 4116 
Q 875 4013 500 3803 
L 500 4441 
Q 881 4594 1212 4672 
Q 1544 4750 1819 4750 
Q 2544 4750 2975 4387 
Q 3406 4025 3406 3419 
Q 3406 3131 3298 2873 
Q 3191 2616 2906 2266 
Q 2828 2175 2409 1742 
Q 1991 1309 1228 531 
z
" transform="scale(0.015625)"/>
       </defs>
       <use xlink:href="#DejaVuSans-32"/>
      </g>
     </g>
    </g>
    <g id="xtick_4">
     <g id="line2d_4">
      <g>
       <use xlink:href="#m507a2f939c" x="434.15554" y="284.4" style="stroke: #000000; stroke-width: 0.8"/>
      </g>
     </g>
     <g id="text_4">
      <!-- 3 -->
      <g transform="translate(430.97429 298.998438) scale(0.1 -0.1)">
       <defs>
        <path id="DejaVuSans-33" d="M 2597 2516 
Q 3050 2419 3304 2112 
Q 3559 1806 3559 1356 
Q 3559 666 3084 287 
Q 2609 -91 1734 -91 
Q 1441 -91 1130 -33 
Q 819 25 488 141 
L 488 750 
Q 750 597 1062 519 
Q 1375 441 1716 441 
Q 2309 441 2620 675 
Q 2931 909 2931 1356 
Q 2931 1769 2642 2001 
Q 2353 2234 1838 2234 
L 1294 2234 
L 1294 2753 
L 1863 2753 
Q 2328 2753 2575 2939 
Q 2822 3125 2822 3475 
Q 2822 3834 2567 4026 
Q 2313 4219 1838 4219 
Q 1578 4219 1281 4162 
Q 984 4106 628 3988 
L 628 4550 
Q 988 4650 1302 4700 
Q 1616 4750 1894 4750 
Q 2613 4750 3031 4423 
Q 3450 4097 3450 3541 
Q 3450 3153 3228 2886 
Q 3006 2619 2597 2516 
z
" transform="scale(0.015625)"/>
       </defs>
       <use xlink:href="#DejaVuSans-33"/>
      </g>
     </g>
    </g>
    <g id="xtick_5">
     <g id="line2d_5">
      <g>
       <use xlink:href="#m507a2f939c" x="555.900994" y="284.4" style="stroke: #000000; stroke-width: 0.8"/>
      </g>
     </g>
     <g id="text_5">
      <!-- 4 -->
      <g transform="translate(552.719744 298.998438) scale(0.1 -0.1)">
       <defs>
        <path id="DejaVuSans-34" d="M 2419 4116 
L 825 1625 
L 2419 1625 
L 2419 4116 
z
M 2253 4666 
L 3047 4666 
L 3047 1625 
L 3713 1625 
L 3713 1100 
L 3047 1100 
L 3047 0 
L 2419 0 
L 2419 1100 
L 313 1100 
L 313 1709 
L 2253 4666 
z
" transform="scale(0.015625)"/>
       </defs>
       <use xlink:href="#DejaVuSans-34"/>
      </g>
     </g>
    </g>
    <g id="xtick_6">
     <g id="line2d_6">
      <g>
       <use xlink:href="#m507a2f939c" x="677.646449" y="284.4" style="stroke: #000000; stroke-width: 0.8"/>
      </g>
     </g>
     <g id="text_6">
      <!-- 5 -->
      <g transform="translate(674.465199 298.998438) scale(0.1 -0.1)">
       <defs>
        <path id="DejaVuSans-35" d="M 691 4666 
L 3169 4666 
L 3169 4134 
L 1269 4134 
L 1269 2991 
Q 1406 3038 1543 3061 
Q 1681 3084 1819 3084 
Q 2600 3084 3056 2656 
Q 3513 2228 3513 1497 
Q 3513 744 3044 326 
Q 2575 -91 1722 -91 
Q 1428 -91 1123 -41 
Q 819 9 494 109 
L 494 744 
Q 775 591 1075 516 
Q 1375 441 1709 441 
Q 2250 441 2565 725 
Q 2881 1009 2881 1497 
Q 2881 1984 2565 2268 
Q 2250 2553 1709 2553 
Q 1456 2553 1204 2497 
Q 953 2441 691 2322 
L 691 4666 
z
" transform="scale(0.015625)"/>
       </defs>
       <use xlink:href="#DejaVuSans-35"/>
      </g>
     </g>
    </g>
   </g>
   <g id="matplotlib.axis_2">
    <g id="ytick_1">
     <g id="line2d_7">
      <defs>
       <path id="mf2edee68fd" d="M 0 0 
L -3.5 0 
" style="stroke: #000000; stroke-width: 0.8"/>
      </defs>
      <g>
       <use xlink:href="#mf2edee68fd" x="38.482813" y="259.354002" style="stroke: #000000; stroke-width: 0.8"/>
      </g>
     </g>
     <g id="text_7">
      <!-- −2.0 -->
      <g transform="translate(7.2 263.153221) scale(0.1 -0.1)">
       <defs>
        <path id="DejaVuSans-2212" d="M 678 2272 
L 4684 2272 
L 4684 1741 
L 678 1741 
L 678 2272 
z
" transform="scale(0.015625)"/>
        <path id="DejaVuSans-2e" d="M 684 794 
L 1344 794 
L 1344 0 
L 684 0 
L 684 794 
z
" transform="scale(0.015625)"/>
       </defs>
       <use xlink:href="#DejaVuSans-2212"/>
       <use xlink:href="#DejaVuSans-32" x="83.789062"/>
       <use xlink:href="#DejaVuSans-2e" x="147.412109"/>
       <use xlink:href="#DejaVuSans-30" x="179.199219"/>
      </g>
     </g>
    </g>
    <g id="ytick_2">
     <g id="line2d_8">
      <g>
       <use xlink:href="#mf2edee68fd" x="38.482813" y="226.975724" style="stroke: #000000; stroke-width: 0.8"/>
      </g>
     </g>
     <g id="text_8">
      <!-- −1.5 -->
      <g transform="translate(7.2 230.774943) scale(0.1 -0.1)">
       <use xlink:href="#DejaVuSans-2212"/>
       <use xlink:href="#DejaVuSans-31" x="83.789062"/>
       <use xlink:href="#DejaVuSans-2e" x="147.412109"/>
       <use xlink:href="#DejaVuSans-35" x="179.199219"/>
      </g>
     </g>
    </g>
    <g id="ytick_3">
     <g id="line2d_9">
      <g>
       <use xlink:href="#mf2edee68fd" x="38.482813" y="194.597446" style="stroke: #000000; stroke-width: 0.8"/>
      </g>
     </g>
     <g id="text_9">
      <!-- −1.0 -->
      <g transform="translate(7.2 198.396664) scale(0.1 -0.1)">
       <use xlink:href="#DejaVuSans-2212"/>
       <use xlink:href="#DejaVuSans-31" x="83.789062"/>
       <use xlink:href="#DejaVuSans-2e" x="147.412109"/>
       <use xlink:href="#DejaVuSans-30" x="179.199219"/>
      </g>
     </g>
    </g>
    <g id="ytick_4">
     <g id="line2d_10">
      <g>
       <use xlink:href="#mf2edee68fd" x="38.482813" y="162.219168" style="stroke: #000000; stroke-width: 0.8"/>
      </g>
     </g>
     <g id="text_10">
      <!-- −0.5 -->
      <g transform="translate(7.2 166.018386) scale(0.1 -0.1)">
       <use xlink:href="#DejaVuSans-2212"/>
       <use xlink:href="#DejaVuSans-30" x="83.789062"/>
       <use xlink:href="#DejaVuSans-2e" x="147.412109"/>
       <use xlink:href="#DejaVuSans-35" x="179.199219"/>
      </g>
     </g>
    </g>
    <g id="ytick_5">
     <g id="line2d_11">
      <g>
       <use xlink:href="#mf2edee68fd" x="38.482813" y="129.840889" style="stroke: #000000; stroke-width: 0.8"/>
      </g>
     </g>
     <g id="text_11">
      <!-- 0.0 -->
      <g transform="translate(15.579688 133.640108) scale(0.1 -0.1)">
       <use xlink:href="#DejaVuSans-30"/>
       <use xlink:href="#DejaVuSans-2e" x="63.623047"/>
       <use xlink:href="#DejaVuSans-30" x="95.410156"/>
      </g>
     </g>
    </g>
    <g id="ytick_6">
     <g id="line2d_12">
      <g>
       <use xlink:href="#mf2edee68fd" x="38.482813" y="97.462611" style="stroke: #000000; stroke-width: 0.8"/>
      </g>
     </g>
     <g id="text_12">
      <!-- 0.5 -->
      <g transform="translate(15.579688 101.26183) scale(0.1 -0.1)">
       <use xlink:href="#DejaVuSans-30"/>
       <use xlink:href="#DejaVuSans-2e" x="63.623047"/>
       <use xlink:href="#DejaVuSans-35" x="95.410156"/>
      </g>
     </g>
    </g>
    <g id="ytick_7">
     <g id="line2d_13">
      <g>
       <use xlink:href="#mf2edee68fd" x="38.482813" y="65.084333" style="stroke: #000000; stroke-width: 0.8"/>
      </g>
     </g>
     <g id="text_13">
      <!-- 1.0 -->
      <g transform="translate(15.579688 68.883552) scale(0.1 -0.1)">
       <use xlink:href="#DejaVuSans-31"/>
       <use xlink:href="#DejaVuSans-2e" x="63.623047"/>
       <use xlink:href="#DejaVuSans-30" x="95.410156"/>
      </g>
     </g>
    </g>
    <g id="ytick_8">
     <g id="line2d_14">
      <g>
       <use xlink:href="#mf2edee68fd" x="38.482813" y="32.706055" style="stroke: #000000; stroke-width: 0.8"/>
      </g>
     </g>
     <g id="text_14">
      <!-- 1.5 -->
      <g transform="translate(15.579688 36.505274) scale(0.1 -0.1)">
       <use xlink:href="#DejaVuSans-31"/>
       <use xlink:href="#DejaVuSans-2e" x="63.623047"/>
       <use xlink:href="#DejaVuSans-35" x="95.410156"/>
      </g>
     </g>
    </g>
   </g>
   <g id="line2d_15">
    <path d="M 68.919176 149.676472 
L 81.342182 150.327395 
L 93.765187 150.461742 
L 106.188193 150.048829 
L 118.611198 149.14806 
L 131.034204 147.897581 
L 143.45721 146.489968 
L 155.880215 145.139153 
L 168.303221 144.044322 
L 180.726226 143.357015 
L 193.149232 143.157003 
L 205.572237 143.441168 
L 217.995243 144.127139 
L 230.418248 145.070967 
L 242.841254 146.095505 
L 255.26426 147.024232 
L 267.687265 147.714318 
L 280.110271 148.082838 
L 292.533276 148.121445 
L 304.956282 147.896887 
L 317.379287 147.537471 
L 329.802293 147.208126 
L 342.225299 147.078871 
L 354.648304 147.292533 
L 367.07131 147.937533 
L 379.494315 149.030768 
L 391.917321 150.513314 
L 404.340326 152.259604 
L 416.763332 154.098196 
L 429.186338 155.840277 
L 441.609343 157.310864 
L 454.032349 158.377385 
L 466.455354 158.971006 
L 478.87836 159.097333 
L 491.301365 158.835155 
L 503.724371 158.323687 
L 516.147377 157.740651 
L 528.570382 157.27466 
L 540.993388 157.096251 
L 553.416393 157.331748 
L 565.839399 158.04375 
L 578.262404 159.220963 
L 590.68541 160.778958 
L 603.108415 162.571755 
L 615.531421 164.413096 
L 627.954427 166.104484 
L 640.377432 167.466413 
L 652.800438 168.368375 
L 665.223443 168.752994 
L 677.646449 168.650366 
" clip-path="url(#p3bb04bbe96)" style="fill: none; stroke: #1f77b4; stroke-opacity: 0.5; stroke-width: 1.5; stroke-linecap: square"/>
   </g>
   <g id="line2d_16">
    <path d="M 68.919176 133.695459 
L 81.342182 132.240568 
L 93.765187 129.160181 
L 106.188193 124.350926 
L 118.611198 117.803575 
L 131.034204 109.621374 
L 143.45721 100.026973 
L 155.880215 89.356156 
L 168.303221 78.038727 
L 180.726226 66.568517 
L 193.149232 55.466079 
L 205.572237 45.238474 
L 217.995243 36.340852 
L 230.418248 29.144154 
L 242.841254 23.912048 
L 255.26426 20.789066 
L 267.687265 19.8 
L 280.110271 20.859475 
L 292.533276 23.789229 
L 304.956282 28.340134 
L 317.379287 34.215733 
L 329.802293 41.094527 
L 342.225299 48.648941 
L 354.648304 56.559887 
L 367.07131 64.52684 
L 379.494315 72.274133 
L 391.917321 79.554769 
L 404.340326 86.153214 
L 416.763332 91.888259 
L 429.186338 96.616753 
L 441.609343 100.238218 
L 454.032349 102.699668 
L 466.455354 103.999707 
L 478.87836 104.190491 
L 491.301365 103.37676 
L 503.724371 101.710991 
L 516.147377 99.385064 
L 528.570382 96.618674 
L 540.993388 93.645963 
L 553.416393 90.701628 
L 565.839399 88.008053 
L 578.262404 85.764664 
L 590.68541 84.140307 
L 603.108415 83.269003 
L 615.531421 83.248771 
L 627.954427 84.14304 
L 640.377432 85.983523 
L 652.800438 88.773679 
L 665.223443 92.491644 
L 677.646449 97.091916 
" clip-path="url(#p3bb04bbe96)" style="fill: none; stroke: #ff7f0e; stroke-opacity: 0.5; stroke-width: 1.5; stroke-linecap: square"/>
   </g>
   <g id="line2d_17">
    <path d="M 68.919176 196.130333 
L 81.342182 199.189646 
L 93.765187 202.041526 
L 106.188193 204.920379 
L 118.611198 207.969422 
L 131.034204 211.222967 
L 143.45721 214.603077 
L 155.880215 217.929943 
L 168.303221 220.943089 
L 180.726226 223.330325 
L 193.149232 224.760201 
L 205.572237 224.914748 
L 217.995243 223.519366 
L 230.418248 220.368192 
L 242.841254 215.343559 
L 255.26426 208.429191 
L 267.687265 199.716932 
L 280.110271 189.406948 
L 292.533276 177.801295 
L 304.956282 165.290867 
L 317.379287 152.335618 
L 329.802293 139.438557 
L 342.225299 127.114471 
L 354.648304 115.855328 
L 367.07131 106.094886 
L 379.494315 98.176135 
L 391.917321 92.325167 
L 404.340326 88.635235 
L 416.763332 87.063724 
L 429.186338 87.443451 
L 441.609343 89.507889 
L 454.032349 92.927761 
L 466.455354 97.354633 
L 478.87836 102.465908 
L 491.301365 108.004774 
L 503.724371 113.809424 
L 516.147377 119.82701 
L 528.570382 126.110062 
L 540.993388 132.79564 
L 553.416393 140.070167 
L 565.839399 148.124909 
L 578.262404 157.108838 
L 590.68541 167.085706 
L 603.108415 178.001781 
L 615.531421 189.669115 
L 627.954427 201.766914 
L 640.377432 213.861089 
L 652.800438 225.439385 
L 665.223443 235.95748 
L 677.646449 244.889893 
" clip-path="url(#p3bb04bbe96)" style="fill: none; stroke: #2ca02c; stroke-opacity: 0.5; stroke-width: 1.5; stroke-linecap: square"/>
   </g>
   <g id="line2d_18">
    <path d="M 68.919176 83.780736 
L 81.342182 77.805443 
L 93.765187 72.201279 
L 106.188193 67.27584 
L 118.611198 63.339209 
L 131.034204 60.684886 
L 143.45721 59.566801 
L 155.880215 60.173999 
L 168.303221 62.605913 
L 180.726226 66.85164 
L 193.149232 72.777242 
L 205.572237 80.124225 
L 217.995243 88.521607 
L 230.418248 97.511794 
L 242.841254 106.588872 
L 255.26426 115.245305 
L 267.687265 123.021881 
L 280.110271 129.554599 
L 292.533276 134.612381 
L 304.956282 138.120746 
L 317.379287 140.168345 
L 329.802293 140.995583 
L 342.225299 140.967361 
L 354.648304 140.533495 
L 367.07131 140.182253 
L 379.494315 140.392671 
L 391.917321 141.591081 
L 404.340326 144.116196 
L 416.763332 148.19557 
L 429.186338 153.934293 
L 441.609343 161.315464 
L 454.032349 170.210204 
L 466.455354 180.394309 
L 478.87836 191.568358 
L 491.301365 203.377988 
L 503.724371 215.43225 
L 516.147377 227.318431 
L 528.570382 238.613409 
L 540.993388 248.89245 
L 553.416393 257.737185 
L 565.839399 264.745085 
L 578.262404 269.542133 
L 590.68541 271.8 
L 603.108415 271.257452 
L 615.531421 267.744467 
L 627.954427 261.206187 
L 640.377432 251.722878 
L 652.800438 239.521892 
L 665.223443 224.978217 
L 677.646449 208.601338 
" clip-path="url(#p3bb04bbe96)" style="fill: none; stroke: #d62728; stroke-opacity: 0.5; stroke-width: 1.5; stroke-linecap: square"/>
   </g>
   <g id="line2d_19">
    <path d="M 68.919176 70.71883 
L 81.342182 59.778364 
L 93.765187 50.212029 
L 106.188193 42.214096 
L 118.611198 35.913281 
L 131.034204 31.379746 
L 143.45721 28.632356 
L 155.880215 27.645413 
L 168.303221 28.354201 
L 180.726226 30.659564 
L 193.149232 34.431751 
L 205.572237 39.51394 
L 217.995243 45.725677 
L 230.418248 52.866329 
L 242.841254 60.718447 
L 255.26426 69.050823 
L 267.687265 77.621185 
L 280.110271 86.17871 
L 292.533276 94.46701 
L 304.956282 102.228451 
L 317.379287 109.210782 
L 329.802293 115.177004 
L 342.225299 119.918852 
L 354.648304 123.273385 
L 367.07131 125.141239 
L 379.494315 125.504499 
L 391.917321 124.441158 
L 404.340326 122.133492 
L 416.763332 118.867785 
L 429.186338 115.02396 
L 441.609343 111.054911 
L 454.032349 107.456932 
L 466.455354 104.733674 
L 478.87836 103.357332 
L 491.301365 103.731216 
L 503.724371 106.157546 
L 516.147377 110.813996 
L 528.570382 117.741161 
L 540.993388 126.841866 
L 553.416393 137.891715 
L 565.839399 150.559113 
L 578.262404 164.431669 
L 590.68541 179.045744 
L 603.108415 193.915455 
L 615.531421 208.558264 
L 627.954427 222.514962 
L 640.377432 235.363214 
L 652.800438 246.725098 
L 665.223443 256.270095 
L 677.646449 263.715942 
" clip-path="url(#p3bb04bbe96)" style="fill: none; stroke: #9467bd; stroke-opacity: 0.5; stroke-width: 1.5; stroke-linecap: square"/>
   </g>
   <g id="patch_3">
    <path d="M 38.482813 284.4 
L 38.482813 7.2 
" style="fill: none; stroke: #000000; stroke-width: 0.8; stroke-linejoin: miter; stroke-linecap: square"/>
   </g>
   <g id="patch_4">
    <path d="M 708.082813 284.4 
L 708.082813 7.2 
" style="fill: none; stroke: #000000; stroke-width: 0.8; stroke-linejoin: miter; stroke-linecap: square"/>
   </g>
   <g id="patch_5">
    <path d="M 38.482813 284.4 
L 708.082813 284.4 
" style="fill: none; stroke: #000000; stroke-width: 0.8; stroke-linejoin: miter; stroke-linecap: square"/>
   </g>
   <g id="patch_6">
    <path d="M 38.482813 7.2 
L 708.082813 7.2 
" style="fill: none; stroke: #000000; stroke-width: 0.8; stroke-linejoin: miter; stroke-linecap: square"/>
   </g>
  </g>
 </g>
 <defs>
  <clipPath id="p3bb04bbe96">
   <rect x="38.482813" y="7.2" width="669.6" height="277.2"/>
  </clipPath>
 </defs>
</svg>
