<?xml version="1.0" encoding="utf-8" standalone="no"?>
<!DOCTYPE svg PUBLIC "-//W3C//DTD SVG 1.1//EN"
  "http://www.w3.org/Graphics/SVG/1.1/DTD/svg11.dtd">
<svg xmlns:xlink="http://www.w3.org/1999/xlink" width="715.282813pt" height="308.278125pt" viewBox="0 0 715.282813 308.278125" xmlns="http://www.w3.org/2000/svg" version="1.1">
 <metadata>
  <rdf:RDF xmlns:dc="http://purl.org/dc/elements/1.1/" xmlns:cc="http://creativecommons.org/ns#" xmlns:rdf="http://www.w3.org/1999/02/22-rdf-syntax-ns#">
   <cc:Work>
    <dc:type rdf:resource="http://purl.org/dc/dcmitype/StillImage"/>
    <dc:date>2024-07-02T16:34:40.647187</dc:date>
    <dc:format>image/svg+xml</dc:format>
    <dc:creator>
     <cc:Agent>
      <dc:title>Matplotlib v3.8.4, https://matplotlib.org/</dc:title>
     </cc:Agent>
    </dc:creator>
   </cc:Work>
  </rdf:RDF>
 </metadata>
 <defs>
  <style type="text/css">*{stroke-linejoin: round; stroke-linecap: butt}</style>
 </defs>
 <g id="figure_1">
  <g id="patch_1">
   <path d="M 0 308.278125 
L 715.282813 308.278125 
L 715.282813 0 
L 0 0 
z
" style="fill: #ffffff"/>
  </g>
  <g id="axes_1">
   <g id="patch_2">
    <path d="M 38.482813 284.4 
L 708.082813 284.4 
L 708.082813 7.2 
L 38.482813 7.2 
z
" style="fill: #ffffff"/>
   </g>
   <g id="matplotlib.axis_1">
    <g id="xtick_1">
     <g id="line2d_1">
      <defs>
       <path id="md8793d0179" d="M 0 0 
L 0 3.5 
" style="stroke: #000000; stroke-width: 0.8"/>
      </defs>
      <g>
       <use xlink:href="#md8793d0179" x="68.919176" y="284.4" style="stroke: #000000; stroke-width: 0.8"/>
      </g>
     </g>
     <g id="text_1">
      <!-- 0 -->
      <g transform="translate(65.737926 298.998438) scale(0.1 -0.1)">
       <defs>
        <path id="DejaVuSans-30" d="M 2034 4250 
Q 1547 4250 1301 3770 
Q 1056 3291 1056 2328 
Q 1056 1369 1301 889 
Q 1547 409 2034 409 
Q 2525 409 2770 889 
Q 3016 1369 3016 2328 
Q 3016 3291 2770 3770 
Q 2525 4250 2034 4250 
z
M 2034 4750 
Q 2819 4750 3233 4129 
Q 3647 3509 3647 2328 
Q 3647 1150 3233 529 
Q 2819 -91 2034 -91 
Q 1250 -91 836 529 
Q 422 1150 422 2328 
Q 422 3509 836 4129 
Q 1250 4750 2034 4750 
z
" transform="scale(0.015625)"/>
       </defs>
       <use xlink:href="#DejaVuSans-30"/>
      </g>
     </g>
    </g>
    <g id="xtick_2">
     <g id="line2d_2">
      <g>
       <use xlink:href="#md8793d0179" x="190.664631" y="284.4" style="stroke: #000000; stroke-width: 0.8"/>
      </g>
     </g>
     <g id="text_2">
      <!-- 1 -->
      <g transform="translate(187.483381 298.998438) scale(0.1 -0.1)">
       <defs>
        <path id="DejaVuSans-31" d="M 794 531 
L 1825 531 
L 1825 4091 
L 703 3866 
L 703 4441 
L 1819 4666 
L 2450 4666 
L 2450 531 
L 3481 531 
L 3481 0 
L 794 0 
L 794 531 
z
" transform="scale(0.015625)"/>
       </defs>
       <use xlink:href="#DejaVuSans-31"/>
      </g>
     </g>
    </g>
    <g id="xtick_3">
     <g id="line2d_3">
      <g>
       <use xlink:href="#md8793d0179" x="312.410085" y="284.4" style="stroke: #000000; stroke-width: 0.8"/>
      </g>
     </g>
     <g id="text_3">
      <!-- 2 -->
      <g transform="translate(309.228835 298.998438) scale(0.1 -0.1)">
       <defs>
        <path id="DejaVuSans-32" d="M 1228 531 
L 3431 531 
L 3431 0 
L 469 0 
L 469 531 
Q 828 903 1448 1529 
Q 2069 2156 2228 2338 
Q 2531 2678 2651 2914 
Q 2772 3150 2772 3378 
Q 2772 3750 2511 3984 
Q 2250 4219 1831 4219 
Q 1534 4219 1204 4116 
Q 875 4013 500 3803 
L 500 4441 
Q 881 4594 1212 4672 
Q 1544 4750 1819 4750 
Q 2544 4750 2975 4387 
Q 3406 4025 3406 3419 
Q 3406 3131 3298 2873 
Q 3191 2616 2906 2266 
Q 2828 2175 2409 1742 
Q 1991 1309 1228 531 
z
" transform="scale(0.015625)"/>
       </defs>
       <use xlink:href="#DejaVuSans-32"/>
      </g>
     </g>
    </g>
    <g id="xtick_4">
     <g id="line2d_4">
      <g>
       <use xlink:href="#md8793d0179" x="434.15554" y="284.4" style="stroke: #000000; stroke-width: 0.8"/>
      </g>
     </g>
     <g id="text_4">
      <!-- 3 -->
      <g transform="translate(430.97429 298.998438) scale(0.1 -0.1)">
       <defs>
        <path id="DejaVuSans-33" d="M 2597 2516 
Q 3050 2419 3304 2112 
Q 3559 1806 3559 1356 
Q 3559 666 3084 287 
Q 2609 -91 1734 -91 
Q 1441 -91 1130 -33 
Q 819 25 488 141 
L 488 750 
Q 750 597 1062 519 
Q 1375 441 1716 441 
Q 2309 441 2620 675 
Q 2931 909 2931 1356 
Q 2931 1769 2642 2001 
Q 2353 2234 1838 2234 
L 1294 2234 
L 1294 2753 
L 1863 2753 
Q 2328 2753 2575 2939 
Q 2822 3125 2822 3475 
Q 2822 3834 2567 4026 
Q 2313 4219 1838 4219 
Q 1578 4219 1281 4162 
Q 984 4106 628 3988 
L 628 4550 
Q 988 4650 1302 4700 
Q 1616 4750 1894 4750 
Q 2613 4750 3031 4423 
Q 3450 4097 3450 3541 
Q 3450 3153 3228 2886 
Q 3006 2619 2597 2516 
z
" transform="scale(0.015625)"/>
       </defs>
       <use xlink:href="#DejaVuSans-33"/>
      </g>
     </g>
    </g>
    <g id="xtick_5">
     <g id="line2d_5">
      <g>
       <use xlink:href="#md8793d0179" x="555.900994" y="284.4" style="stroke: #000000; stroke-width: 0.8"/>
      </g>
     </g>
     <g id="text_5">
      <!-- 4 -->
      <g transform="translate(552.719744 298.998438) scale(0.1 -0.1)">
       <defs>
        <path id="DejaVuSans-34" d="M 2419 4116 
L 825 1625 
L 2419 1625 
L 2419 4116 
z
M 2253 4666 
L 3047 4666 
L 3047 1625 
L 3713 1625 
L 3713 1100 
L 3047 1100 
L 3047 0 
L 2419 0 
L 2419 1100 
L 313 1100 
L 313 1709 
L 2253 4666 
z
" transform="scale(0.015625)"/>
       </defs>
       <use xlink:href="#DejaVuSans-34"/>
      </g>
     </g>
    </g>
    <g id="xtick_6">
     <g id="line2d_6">
      <g>
       <use xlink:href="#md8793d0179" x="677.646449" y="284.4" style="stroke: #000000; stroke-width: 0.8"/>
      </g>
     </g>
     <g id="text_6">
      <!-- 5 -->
      <g transform="translate(674.465199 298.998438) scale(0.1 -0.1)">
       <defs>
        <path id="DejaVuSans-35" d="M 691 4666 
L 3169 4666 
L 3169 4134 
L 1269 4134 
L 1269 2991 
Q 1406 3038 1543 3061 
Q 1681 3084 1819 3084 
Q 2600 3084 3056 2656 
Q 3513 2228 3513 1497 
Q 3513 744 3044 326 
Q 2575 -91 1722 -91 
Q 1428 -91 1123 -41 
Q 819 9 494 109 
L 494 744 
Q 775 591 1075 516 
Q 1375 441 1709 441 
Q 2250 441 2565 725 
Q 2881 1009 2881 1497 
Q 2881 1984 2565 2268 
Q 2250 2553 1709 2553 
Q 1456 2553 1204 2497 
Q 953 2441 691 2322 
L 691 4666 
z
" transform="scale(0.015625)"/>
       </defs>
       <use xlink:href="#DejaVuSans-35"/>
      </g>
     </g>
    </g>
   </g>
   <g id="matplotlib.axis_2">
    <g id="ytick_1">
     <g id="line2d_7">
      <defs>
       <path id="md0943ebadd" d="M 0 0 
L -3.5 0 
" style="stroke: #000000; stroke-width: 0.8"/>
      </defs>
      <g>
       <use xlink:href="#md0943ebadd" x="38.482813" y="253.886115" style="stroke: #000000; stroke-width: 0.8"/>
      </g>
     </g>
     <g id="text_7">
      <!-- −1.5 -->
      <g transform="translate(7.2 257.685334) scale(0.1 -0.1)">
       <defs>
        <path id="DejaVuSans-2212" d="M 678 2272 
L 4684 2272 
L 4684 1741 
L 678 1741 
L 678 2272 
z
" transform="scale(0.015625)"/>
        <path id="DejaVuSans-2e" d="M 684 794 
L 1344 794 
L 1344 0 
L 684 0 
L 684 794 
z
" transform="scale(0.015625)"/>
       </defs>
       <use xlink:href="#DejaVuSans-2212"/>
       <use xlink:href="#DejaVuSans-31" x="83.789062"/>
       <use xlink:href="#DejaVuSans-2e" x="147.412109"/>
       <use xlink:href="#DejaVuSans-35" x="179.199219"/>
      </g>
     </g>
    </g>
    <g id="ytick_2">
     <g id="line2d_8">
      <g>
       <use xlink:href="#md0943ebadd" x="38.482813" y="216.445114" style="stroke: #000000; stroke-width: 0.8"/>
      </g>
     </g>
     <g id="text_8">
      <!-- −1.0 -->
      <g transform="translate(7.2 220.244333) scale(0.1 -0.1)">
       <use xlink:href="#DejaVuSans-2212"/>
       <use xlink:href="#DejaVuSans-31" x="83.789062"/>
       <use xlink:href="#DejaVuSans-2e" x="147.412109"/>
       <use xlink:href="#DejaVuSans-30" x="179.199219"/>
      </g>
     </g>
    </g>
    <g id="ytick_3">
     <g id="line2d_9">
      <g>
       <use xlink:href="#md0943ebadd" x="38.482813" y="179.004114" style="stroke: #000000; stroke-width: 0.8"/>
      </g>
     </g>
     <g id="text_9">
      <!-- −0.5 -->
      <g transform="translate(7.2 182.803333) scale(0.1 -0.1)">
       <use xlink:href="#DejaVuSans-2212"/>
       <use xlink:href="#DejaVuSans-30" x="83.789062"/>
       <use xlink:href="#DejaVuSans-2e" x="147.412109"/>
       <use xlink:href="#DejaVuSans-35" x="179.199219"/>
      </g>
     </g>
    </g>
    <g id="ytick_4">
     <g id="line2d_10">
      <g>
       <use xlink:href="#md0943ebadd" x="38.482813" y="141.563113" style="stroke: #000000; stroke-width: 0.8"/>
      </g>
     </g>
     <g id="text_10">
      <!-- 0.0 -->
      <g transform="translate(15.579688 145.362332) scale(0.1 -0.1)">
       <use xlink:href="#DejaVuSans-30"/>
       <use xlink:href="#DejaVuSans-2e" x="63.623047"/>
       <use xlink:href="#DejaVuSans-30" x="95.410156"/>
      </g>
     </g>
    </g>
    <g id="ytick_5">
     <g id="line2d_11">
      <g>
       <use xlink:href="#md0943ebadd" x="38.482813" y="104.122113" style="stroke: #000000; stroke-width: 0.8"/>
      </g>
     </g>
     <g id="text_11">
      <!-- 0.5 -->
      <g transform="translate(15.579688 107.921332) scale(0.1 -0.1)">
       <use xlink:href="#DejaVuSans-30"/>
       <use xlink:href="#DejaVuSans-2e" x="63.623047"/>
       <use xlink:href="#DejaVuSans-35" x="95.410156"/>
      </g>
     </g>
    </g>
    <g id="ytick_6">
     <g id="line2d_12">
      <g>
       <use xlink:href="#md0943ebadd" x="38.482813" y="66.681112" style="stroke: #000000; stroke-width: 0.8"/>
      </g>
     </g>
     <g id="text_12">
      <!-- 1.0 -->
      <g transform="translate(15.579688 70.480331) scale(0.1 -0.1)">
       <use xlink:href="#DejaVuSans-31"/>
       <use xlink:href="#DejaVuSans-2e" x="63.623047"/>
       <use xlink:href="#DejaVuSans-30" x="95.410156"/>
      </g>
     </g>
    </g>
    <g id="ytick_7">
     <g id="line2d_13">
      <g>
       <use xlink:href="#md0943ebadd" x="38.482813" y="29.240112" style="stroke: #000000; stroke-width: 0.8"/>
      </g>
     </g>
     <g id="text_13">
      <!-- 1.5 -->
      <g transform="translate(15.579688 33.039331) scale(0.1 -0.1)">
       <use xlink:href="#DejaVuSans-31"/>
       <use xlink:href="#DejaVuSans-2e" x="63.623047"/>
       <use xlink:href="#DejaVuSans-35" x="95.410156"/>
      </g>
     </g>
    </g>
   </g>
   <g id="line2d_14">
    <path d="M 68.919176 259.299969 
L 81.342182 254.528347 
L 93.765187 248.378806 
L 106.188193 240.94401 
L 118.611198 232.363523 
L 131.034204 222.838833 
L 143.45721 212.638952 
L 155.880215 202.09383 
L 168.303221 191.575073 
L 180.726226 181.466345 
L 193.149232 172.127671 
L 205.572237 163.859603 
L 217.995243 156.873153 
L 230.418248 151.270805 
L 242.841254 147.041467 
L 255.26426 144.070354 
L 267.687265 142.161578 
L 280.110271 141.069331 
L 292.533276 140.532325 
L 304.956282 140.305484 
L 317.379287 140.184252 
L 329.802293 140.018158 
L 342.225299 139.712663 
L 354.648304 139.220491 
L 367.07131 138.525466 
L 379.494315 137.622899 
L 391.917321 136.501019 
L 404.340326 135.12719 
L 416.763332 133.441473 
L 429.186338 131.358572 
L 441.609343 128.777473 
L 454.032349 125.596852 
L 466.455354 121.733328 
L 478.87836 117.139266 
L 491.301365 111.817358 
L 503.724371 105.829444 
L 516.147377 99.298471 
L 528.570382 92.403098 
L 540.993388 85.365866 
L 553.416393 78.436133 
L 565.839399 71.869832 
L 578.262404 65.907962 
L 590.68541 60.755848 
L 603.108415 56.564923 
L 615.531421 53.418485 
L 627.954427 51.32265 
L 640.377432 50.20338 
L 652.800438 49.910176 
L 665.223443 50.226538 
L 677.646449 50.887015 
" clip-path="url(#p6e6fb02f9b)" style="fill: none; stroke: #1f77b4; stroke-opacity: 0.5; stroke-width: 1.5; stroke-linecap: square"/>
   </g>
   <g id="line2d_15">
    <path d="M 68.919176 75.997259 
L 81.342182 64.843238 
L 93.765187 54.887712 
L 106.188193 46.41533 
L 118.611198 39.597871 
L 131.034204 34.489695 
L 143.45721 31.036703 
L 155.880215 29.097521 
L 168.303221 28.473683 
L 180.726226 28.944412 
L 193.149232 30.300982 
L 205.572237 32.375958 
L 217.995243 35.063608 
L 230.418248 38.329189 
L 242.841254 42.206735 
L 255.26426 46.786594 
L 267.687265 52.195023 
L 280.110271 58.56949 
L 292.533276 66.032791 
L 304.956282 74.669521 
L 317.379287 84.507062 
L 329.802293 95.502815 
L 342.225299 107.53815 
L 354.648304 120.419025 
L 367.07131 133.882381 
L 379.494315 147.607232 
L 391.917321 161.22911 
L 404.340326 174.356669 
L 416.763332 186.589023 
L 429.186338 197.533055 
L 441.609343 206.819424 
L 454.032349 214.116873 
L 466.455354 219.144245 
L 478.87836 221.680191 
L 491.301365 221.570419 
L 503.724371 218.733059 
L 516.147377 213.162374 
L 528.570382 204.931153 
L 540.993388 194.191953 
L 553.416393 181.176918 
L 565.839399 166.195715 
L 578.262404 149.630824 
L 590.68541 131.929331 
L 603.108415 113.59062 
L 615.531421 95.149652 
L 627.954427 77.156231 
L 640.377432 60.151035 
L 652.800438 44.639972 
L 665.223443 31.068822 
L 677.646449 19.8 
" clip-path="url(#p6e6fb02f9b)" style="fill: none; stroke: #ff7f0e; stroke-opacity: 0.5; stroke-width: 1.5; stroke-linecap: square"/>
   </g>
   <g id="line2d_16">
    <path d="M 68.919176 83.910934 
L 81.342182 77.347629 
L 93.765187 72.658969 
L 106.188193 69.498103 
L 118.611198 67.527904 
L 131.034204 66.444348 
L 143.45721 65.989317 
L 155.880215 65.954441 
L 168.303221 66.177883 
L 180.726226 66.536949 
L 193.149232 66.939079 
L 205.572237 67.313578 
L 217.995243 67.605776 
L 230.418248 67.774529 
L 242.841254 67.793069 
L 255.26426 67.652676 
L 267.687265 67.367901 
L 280.110271 66.981748 
L 292.533276 66.569568 
L 304.956282 66.239998 
L 317.379287 66.132448 
L 329.802293 66.410552 
L 342.225299 67.25227 
L 354.648304 68.837156 
L 367.07131 71.332192 
L 379.494315 74.877225 
L 391.917321 79.57155 
L 404.340326 85.462317 
L 416.763332 92.535932 
L 429.186338 100.712961 
L 441.609343 109.847193 
L 454.032349 119.729253 
L 466.455354 130.095218 
L 478.87836 140.640027 
L 491.301365 151.035331 
L 503.724371 160.950548 
L 516.147377 170.075139 
L 528.570382 178.139876 
L 540.993388 184.934303 
L 553.416393 190.318048 
L 565.839399 194.224637 
L 578.262404 196.657291 
L 590.68541 197.67809 
L 603.108415 197.39282 
L 615.531421 195.934874 
L 627.954427 193.451365 
L 640.377432 190.094296 
L 652.800438 186.017845 
L 665.223443 181.381444 
L 677.646449 176.356416 
" clip-path="url(#p6e6fb02f9b)" style="fill: none; stroke: #2ca02c; stroke-opacity: 0.5; stroke-width: 1.5; stroke-linecap: square"/>
   </g>
   <g id="line2d_17">
    <path d="M 68.919176 197.681779 
L 81.342182 204.450422 
L 93.765187 211.424684 
L 106.188193 218.497723 
L 118.611198 225.571361 
L 131.034204 232.551431 
L 143.45721 239.34048 
L 155.880215 245.830298 
L 168.303221 251.897162 
L 180.726226 257.402016 
L 193.149232 262.196933 
L 205.572237 266.137536 
L 217.995243 269.099744 
L 230.418248 270.997764 
L 242.841254 271.8 
L 255.26426 271.539146 
L 267.687265 270.314172 
L 280.110271 268.282647 
L 292.533276 265.64421 
L 304.956282 262.617089 
L 317.379287 259.411217 
L 329.802293 256.20204 
L 342.225299 253.109208 
L 354.648304 250.183325 
L 367.07131 247.403 
L 379.494315 244.682273 
L 391.917321 241.887121 
L 404.340326 238.858097 
L 416.763332 235.435277 
L 429.186338 231.481472 
L 441.609343 226.900087 
L 454.032349 221.645177 
L 466.455354 215.722793 
L 478.87836 209.184212 
L 491.301365 202.113232 
L 503.724371 194.610602 
L 516.147377 186.77875 
L 528.570382 178.709957 
L 540.993388 170.479908 
L 553.416393 162.147263 
L 565.839399 153.758828 
L 578.262404 145.358343 
L 590.68541 136.99692 
L 603.108415 128.742347 
L 615.531421 120.685367 
L 627.954427 112.94174 
L 640.377432 105.649529 
L 652.800438 98.962174 
L 665.223443 93.038379 
L 677.646449 88.030066 
" clip-path="url(#p6e6fb02f9b)" style="fill: none; stroke: #d62728; stroke-opacity: 0.5; stroke-width: 1.5; stroke-linecap: square"/>
   </g>
   <g id="line2d_18">
    <path d="M 68.919176 45.478079 
L 81.342182 43.295614 
L 93.765187 42.210251 
L 106.188193 42.227265 
L 118.611198 43.318898 
L 131.034204 45.421071 
L 143.45721 48.429437 
L 155.880215 52.196751 
L 168.303221 56.533589 
L 180.726226 61.214008 
L 193.149232 65.986578 
L 205.572237 70.590581 
L 217.995243 74.775599 
L 230.418248 78.322099 
L 242.841254 81.060161 
L 255.26426 82.883789 
L 267.687265 83.758556 
L 280.110271 83.721931 
L 292.533276 82.87612 
L 304.956282 81.374847 
L 317.379287 79.406001 
L 329.802293 77.172364 
L 342.225299 74.872746 
L 354.648304 72.685458 
L 367.07131 70.755394 
L 379.494315 69.185455 
L 391.917321 68.032896 
L 404.340326 67.310208 
L 416.763332 66.990611 
L 429.186338 67.017478 
L 441.609343 67.317147 
L 454.032349 67.814 
L 466.455354 68.446435 
L 478.87836 69.181878 
L 491.301365 70.028857 
L 503.724371 71.043976 
L 516.147377 72.332371 
L 528.570382 74.040583 
L 540.993388 76.342362 
L 553.416393 79.418566 
L 565.839399 83.4337 
L 578.262404 88.512029 
L 590.68541 94.71649 
L 603.108415 102.033066 
L 615.531421 110.362587 
L 627.954427 119.520553 
L 640.377432 129.244711 
L 652.800438 139.209089 
L 665.223443 149.042459 
L 677.646449 158.349465 
" clip-path="url(#p6e6fb02f9b)" style="fill: none; stroke: #9467bd; stroke-opacity: 0.5; stroke-width: 1.5; stroke-linecap: square"/>
   </g>
   <g id="patch_3">
    <path d="M 38.482813 284.4 
L 38.482813 7.2 
" style="fill: none; stroke: #000000; stroke-width: 0.8; stroke-linejoin: miter; stroke-linecap: square"/>
   </g>
   <g id="patch_4">
    <path d="M 708.082813 284.4 
L 708.082813 7.2 
" style="fill: none; stroke: #000000; stroke-width: 0.8; stroke-linejoin: miter; stroke-linecap: square"/>
   </g>
   <g id="patch_5">
    <path d="M 38.482813 284.4 
L 708.082813 284.4 
" style="fill: none; stroke: #000000; stroke-width: 0.8; stroke-linejoin: miter; stroke-linecap: square"/>
   </g>
   <g id="patch_6">
    <path d="M 38.482813 7.2 
L 708.082813 7.2 
" style="fill: none; stroke: #000000; stroke-width: 0.8; stroke-linejoin: miter; stroke-linecap: square"/>
   </g>
  </g>
 </g>
 <defs>
  <clipPath id="p6e6fb02f9b">
   <rect x="38.482813" y="7.2" width="669.6" height="277.2"/>
  </clipPath>
 </defs>
</svg>
