<?xml version="1.0" encoding="utf-8" standalone="no"?>
<!DOCTYPE svg PUBLIC "-//W3C//DTD SVG 1.1//EN"
  "http://www.w3.org/Graphics/SVG/1.1/DTD/svg11.dtd">
<svg xmlns:xlink="http://www.w3.org/1999/xlink" width="735.460937pt" height="331.634375pt" viewBox="0 0 735.460937 331.634375" xmlns="http://www.w3.org/2000/svg" version="1.1">
 <metadata>
  <rdf:RDF xmlns:dc="http://purl.org/dc/elements/1.1/" xmlns:cc="http://creativecommons.org/ns#" xmlns:rdf="http://www.w3.org/1999/02/22-rdf-syntax-ns#">
   <cc:Work>
    <dc:type rdf:resource="http://purl.org/dc/dcmitype/StillImage"/>
    <dc:date>2024-07-03T09:51:53.276642</dc:date>
    <dc:format>image/svg+xml</dc:format>
    <dc:creator>
     <cc:Agent>
      <dc:title>Matplotlib v3.8.4, https://matplotlib.org/</dc:title>
     </cc:Agent>
    </dc:creator>
   </cc:Work>
  </rdf:RDF>
 </metadata>
 <defs>
  <style type="text/css">*{stroke-linejoin: round; stroke-linecap: butt}</style>
 </defs>
 <g id="figure_1">
  <g id="patch_1">
   <path d="M 0 331.634375 
L 735.460937 331.634375 
L 735.460937 0 
L 0 0 
z
" style="fill: #ffffff"/>
  </g>
  <g id="axes_1">
   <g id="patch_2">
    <path d="M 58.660938 284.4 
L 728.260938 284.4 
L 728.260938 7.2 
L 58.660938 7.2 
z
" style="fill: #ffffff"/>
   </g>
   <g id="PolyCollection_1">
    <path d="M 89.097301 31.588267 
L 89.097301 250.8891 
L 101.520307 246.589225 
L 113.943312 242.296979 
L 126.366318 238.013377 
L 138.789323 233.739622 
L 151.212329 229.477143 
L 163.635335 225.227658 
L 176.05834 220.993243 
L 188.481346 216.776433 
L 200.904351 212.58035 
L 213.327357 208.408878 
L 225.750362 204.266903 
L 238.173368 200.160648 
L 250.596373 196.098133 
L 263.019379 192.089843 
L 275.442385 188.149679 
L 287.86539 184.296347 
L 300.288396 180.555388 
L 312.711401 176.962122 
L 325.134407 173.565834 
L 337.557412 170.435348 
L 349.980418 167.665292 
L 362.403424 165.380058 
L 374.826429 163.72793 
L 387.249435 162.854564 
L 399.67244 162.854564 
L 412.095446 163.72793 
L 424.518451 165.380058 
L 436.941457 167.665292 
L 449.364463 170.435348 
L 461.787468 173.565834 
L 474.210474 176.962122 
L 486.633479 180.555388 
L 499.056485 184.296347 
L 511.47949 188.149679 
L 523.902496 192.089843 
L 536.325502 196.098133 
L 548.748507 200.160648 
L 561.171513 204.266903 
L 573.594518 208.408878 
L 586.017524 212.58035 
L 598.440529 216.776433 
L 610.863535 220.993243 
L 623.28654 225.227658 
L 635.709546 229.477143 
L 648.132552 233.739622 
L 660.555557 238.013377 
L 672.978563 242.296979 
L 685.401568 246.589225 
L 697.824574 250.8891 
L 697.824574 31.588267 
L 697.824574 31.588267 
L 685.401568 35.888143 
L 672.978563 40.180389 
L 660.555557 44.46399 
L 648.132552 48.737746 
L 635.709546 53.000224 
L 623.28654 57.24971 
L 610.863535 61.484124 
L 598.440529 65.700934 
L 586.017524 69.897018 
L 573.594518 74.06849 
L 561.171513 78.210464 
L 548.748507 82.31672 
L 536.325502 86.379235 
L 523.902496 90.387525 
L 511.47949 94.327689 
L 499.056485 98.18102 
L 486.633479 101.921979 
L 474.210474 105.515246 
L 461.787468 108.911533 
L 449.364463 112.04202 
L 436.941457 114.812075 
L 424.518451 117.097309 
L 412.095446 118.749438 
L 399.67244 119.622803 
L 387.249435 119.622803 
L 374.826429 118.749438 
L 362.403424 117.097309 
L 349.980418 114.812075 
L 337.557412 112.04202 
L 325.134407 108.911533 
L 312.711401 105.515246 
L 300.288396 101.921979 
L 287.86539 98.18102 
L 275.442385 94.327689 
L 263.019379 90.387525 
L 250.596373 86.379235 
L 238.173368 82.31672 
L 225.750362 78.210464 
L 213.327357 74.06849 
L 200.904351 69.897018 
L 188.481346 65.700934 
L 176.05834 61.484124 
L 163.635335 57.24971 
L 151.212329 53.000224 
L 138.789323 48.737746 
L 126.366318 44.46399 
L 113.943312 40.180389 
L 101.520307 35.888143 
L 89.097301 31.588267 
z
" clip-path="url(#p555d573971)" style="fill: #1f77b4; fill-opacity: 0.25"/>
   </g>
   <g id="matplotlib.axis_1">
    <g id="xtick_1">
     <g id="line2d_1">
      <defs>
       <path id="m2d2bd0436b" d="M 0 0 
L 0 3.5 
" style="stroke: #000000; stroke-width: 0.8"/>
      </defs>
      <g>
       <use xlink:href="#m2d2bd0436b" x="149.970028" y="284.4" style="stroke: #000000; stroke-width: 0.8"/>
      </g>
     </g>
     <g id="text_1">
      <!-- −4 -->
      <g transform="translate(142.598935 298.998437) scale(0.1 -0.1)">
       <defs>
        <path id="DejaVuSans-2212" d="M 678 2272 
L 4684 2272 
L 4684 1741 
L 678 1741 
L 678 2272 
z
" transform="scale(0.015625)"/>
        <path id="DejaVuSans-34" d="M 2419 4116 
L 825 1625 
L 2419 1625 
L 2419 4116 
z
M 2253 4666 
L 3047 4666 
L 3047 1625 
L 3713 1625 
L 3713 1100 
L 3047 1100 
L 3047 0 
L 2419 0 
L 2419 1100 
L 313 1100 
L 313 1709 
L 2253 4666 
z
" transform="scale(0.015625)"/>
       </defs>
       <use xlink:href="#DejaVuSans-2212"/>
       <use xlink:href="#DejaVuSans-34" x="83.789062"/>
      </g>
     </g>
    </g>
    <g id="xtick_2">
     <g id="line2d_2">
      <g>
       <use xlink:href="#m2d2bd0436b" x="271.715483" y="284.4" style="stroke: #000000; stroke-width: 0.8"/>
      </g>
     </g>
     <g id="text_2">
      <!-- −2 -->
      <g transform="translate(264.344389 298.998437) scale(0.1 -0.1)">
       <defs>
        <path id="DejaVuSans-32" d="M 1228 531 
L 3431 531 
L 3431 0 
L 469 0 
L 469 531 
Q 828 903 1448 1529 
Q 2069 2156 2228 2338 
Q 2531 2678 2651 2914 
Q 2772 3150 2772 3378 
Q 2772 3750 2511 3984 
Q 2250 4219 1831 4219 
Q 1534 4219 1204 4116 
Q 875 4013 500 3803 
L 500 4441 
Q 881 4594 1212 4672 
Q 1544 4750 1819 4750 
Q 2544 4750 2975 4387 
Q 3406 4025 3406 3419 
Q 3406 3131 3298 2873 
Q 3191 2616 2906 2266 
Q 2828 2175 2409 1742 
Q 1991 1309 1228 531 
z
" transform="scale(0.015625)"/>
       </defs>
       <use xlink:href="#DejaVuSans-2212"/>
       <use xlink:href="#DejaVuSans-32" x="83.789062"/>
      </g>
     </g>
    </g>
    <g id="xtick_3">
     <g id="line2d_3">
      <g>
       <use xlink:href="#m2d2bd0436b" x="393.460938" y="284.4" style="stroke: #000000; stroke-width: 0.8"/>
      </g>
     </g>
     <g id="text_3">
      <!-- 0 -->
      <g transform="translate(390.279688 298.998437) scale(0.1 -0.1)">
       <defs>
        <path id="DejaVuSans-30" d="M 2034 4250 
Q 1547 4250 1301 3770 
Q 1056 3291 1056 2328 
Q 1056 1369 1301 889 
Q 1547 409 2034 409 
Q 2525 409 2770 889 
Q 3016 1369 3016 2328 
Q 3016 3291 2770 3770 
Q 2525 4250 2034 4250 
z
M 2034 4750 
Q 2819 4750 3233 4129 
Q 3647 3509 3647 2328 
Q 3647 1150 3233 529 
Q 2819 -91 2034 -91 
Q 1250 -91 836 529 
Q 422 1150 422 2328 
Q 422 3509 836 4129 
Q 1250 4750 2034 4750 
z
" transform="scale(0.015625)"/>
       </defs>
       <use xlink:href="#DejaVuSans-30"/>
      </g>
     </g>
    </g>
    <g id="xtick_4">
     <g id="line2d_4">
      <g>
       <use xlink:href="#m2d2bd0436b" x="515.206392" y="284.4" style="stroke: #000000; stroke-width: 0.8"/>
      </g>
     </g>
     <g id="text_4">
      <!-- 2 -->
      <g transform="translate(512.025142 298.998437) scale(0.1 -0.1)">
       <use xlink:href="#DejaVuSans-32"/>
      </g>
     </g>
    </g>
    <g id="xtick_5">
     <g id="line2d_5">
      <g>
       <use xlink:href="#m2d2bd0436b" x="636.951847" y="284.4" style="stroke: #000000; stroke-width: 0.8"/>
      </g>
     </g>
     <g id="text_5">
      <!-- 4 -->
      <g transform="translate(633.770597 298.998437) scale(0.1 -0.1)">
       <use xlink:href="#DejaVuSans-34"/>
      </g>
     </g>
    </g>
    <g id="text_6">
     <!-- x -->
     <g transform="translate(387.542188 320.275) scale(0.2 -0.2)">
      <defs>
       <path id="DejaVuSans-78" d="M 3513 3500 
L 2247 1797 
L 3578 0 
L 2900 0 
L 1881 1375 
L 863 0 
L 184 0 
L 1544 1831 
L 300 3500 
L 978 3500 
L 1906 2253 
L 2834 3500 
L 3513 3500 
z
" transform="scale(0.015625)"/>
      </defs>
      <use xlink:href="#DejaVuSans-78"/>
     </g>
    </g>
   </g>
   <g id="matplotlib.axis_2">
    <g id="ytick_1">
     <g id="line2d_6">
      <defs>
       <path id="md6b1c00992" d="M 0 0 
L -3.5 0 
" style="stroke: #000000; stroke-width: 0.8"/>
      </defs>
      <g>
       <use xlink:href="#md6b1c00992" x="58.660938" y="248.759763" style="stroke: #000000; stroke-width: 0.8"/>
      </g>
     </g>
     <g id="text_7">
      <!-- −10 -->
      <g transform="translate(30.55625 252.558982) scale(0.1 -0.1)">
       <defs>
        <path id="DejaVuSans-31" d="M 794 531 
L 1825 531 
L 1825 4091 
L 703 3866 
L 703 4441 
L 1819 4666 
L 2450 4666 
L 2450 531 
L 3481 531 
L 3481 0 
L 794 0 
L 794 531 
z
" transform="scale(0.015625)"/>
       </defs>
       <use xlink:href="#DejaVuSans-2212"/>
       <use xlink:href="#DejaVuSans-31" x="83.789062"/>
       <use xlink:href="#DejaVuSans-30" x="147.412109"/>
      </g>
     </g>
    </g>
    <g id="ytick_2">
     <g id="line2d_7">
      <g>
       <use xlink:href="#md6b1c00992" x="58.660938" y="194.999224" style="stroke: #000000; stroke-width: 0.8"/>
      </g>
     </g>
     <g id="text_8">
      <!-- −5 -->
      <g transform="translate(36.91875 198.798442) scale(0.1 -0.1)">
       <defs>
        <path id="DejaVuSans-35" d="M 691 4666 
L 3169 4666 
L 3169 4134 
L 1269 4134 
L 1269 2991 
Q 1406 3038 1543 3061 
Q 1681 3084 1819 3084 
Q 2600 3084 3056 2656 
Q 3513 2228 3513 1497 
Q 3513 744 3044 326 
Q 2575 -91 1722 -91 
Q 1428 -91 1123 -41 
Q 819 9 494 109 
L 494 744 
Q 775 591 1075 516 
Q 1375 441 1709 441 
Q 2250 441 2565 725 
Q 2881 1009 2881 1497 
Q 2881 1984 2565 2268 
Q 2250 2553 1709 2553 
Q 1456 2553 1204 2497 
Q 953 2441 691 2322 
L 691 4666 
z
" transform="scale(0.015625)"/>
       </defs>
       <use xlink:href="#DejaVuSans-2212"/>
       <use xlink:href="#DejaVuSans-35" x="83.789062"/>
      </g>
     </g>
    </g>
    <g id="ytick_3">
     <g id="line2d_8">
      <g>
       <use xlink:href="#md6b1c00992" x="58.660938" y="141.238684" style="stroke: #000000; stroke-width: 0.8"/>
      </g>
     </g>
     <g id="text_9">
      <!-- 0 -->
      <g transform="translate(45.298438 145.037903) scale(0.1 -0.1)">
       <use xlink:href="#DejaVuSans-30"/>
      </g>
     </g>
    </g>
    <g id="ytick_4">
     <g id="line2d_9">
      <g>
       <use xlink:href="#md6b1c00992" x="58.660938" y="87.478144" style="stroke: #000000; stroke-width: 0.8"/>
      </g>
     </g>
     <g id="text_10">
      <!-- 5 -->
      <g transform="translate(45.298438 91.277363) scale(0.1 -0.1)">
       <use xlink:href="#DejaVuSans-35"/>
      </g>
     </g>
    </g>
    <g id="ytick_5">
     <g id="line2d_10">
      <g>
       <use xlink:href="#md6b1c00992" x="58.660938" y="33.717604" style="stroke: #000000; stroke-width: 0.8"/>
      </g>
     </g>
     <g id="text_11">
      <!-- 10 -->
      <g transform="translate(38.935938 37.516823) scale(0.1 -0.1)">
       <use xlink:href="#DejaVuSans-31"/>
       <use xlink:href="#DejaVuSans-30" x="63.623047"/>
      </g>
     </g>
    </g>
    <g id="text_12">
     <!-- f(x) -->
     <g transform="translate(22.396875 163.042187) rotate(-90) scale(0.2 -0.2)">
      <defs>
       <path id="DejaVuSans-66" d="M 2375 4863 
L 2375 4384 
L 1825 4384 
Q 1516 4384 1395 4259 
Q 1275 4134 1275 3809 
L 1275 3500 
L 2222 3500 
L 2222 3053 
L 1275 3053 
L 1275 0 
L 697 0 
L 697 3053 
L 147 3053 
L 147 3500 
L 697 3500 
L 697 3744 
Q 697 4328 969 4595 
Q 1241 4863 1831 4863 
L 2375 4863 
z
" transform="scale(0.015625)"/>
       <path id="DejaVuSans-28" d="M 1984 4856 
Q 1566 4138 1362 3434 
Q 1159 2731 1159 2009 
Q 1159 1288 1364 580 
Q 1569 -128 1984 -844 
L 1484 -844 
Q 1016 -109 783 600 
Q 550 1309 550 2009 
Q 550 2706 781 3412 
Q 1013 4119 1484 4856 
L 1984 4856 
z
" transform="scale(0.015625)"/>
       <path id="DejaVuSans-29" d="M 513 4856 
L 1013 4856 
Q 1481 4119 1714 3412 
Q 1947 2706 1947 2009 
Q 1947 1309 1714 600 
Q 1481 -109 1013 -844 
L 513 -844 
Q 928 -128 1133 580 
Q 1338 1288 1338 2009 
Q 1338 2731 1133 3434 
Q 928 4138 513 4856 
z
" transform="scale(0.015625)"/>
      </defs>
      <use xlink:href="#DejaVuSans-66"/>
      <use xlink:href="#DejaVuSans-28" x="35.205078"/>
      <use xlink:href="#DejaVuSans-78" x="74.21875"/>
      <use xlink:href="#DejaVuSans-29" x="133.398438"/>
     </g>
    </g>
   </g>
   <g id="line2d_11">
    <path d="M 89.097301 141.238684 
L 101.520307 141.238684 
L 113.943312 141.238684 
L 126.366318 141.238684 
L 138.789323 141.238684 
L 151.212329 141.238684 
L 163.635335 141.238684 
L 176.05834 141.238684 
L 188.481346 141.238684 
L 200.904351 141.238684 
L 213.327357 141.238684 
L 225.750362 141.238684 
L 238.173368 141.238684 
L 250.596373 141.238684 
L 263.019379 141.238684 
L 275.442385 141.238684 
L 287.86539 141.238684 
L 300.288396 141.238684 
L 312.711401 141.238684 
L 325.134407 141.238684 
L 337.557412 141.238684 
L 349.980418 141.238684 
L 362.403424 141.238684 
L 374.826429 141.238684 
L 387.249435 141.238684 
L 399.67244 141.238684 
L 412.095446 141.238684 
L 424.518451 141.238684 
L 436.941457 141.238684 
L 449.364463 141.238684 
L 461.787468 141.238684 
L 474.210474 141.238684 
L 486.633479 141.238684 
L 499.056485 141.238684 
L 511.47949 141.238684 
L 523.902496 141.238684 
L 536.325502 141.238684 
L 548.748507 141.238684 
L 561.171513 141.238684 
L 573.594518 141.238684 
L 586.017524 141.238684 
L 598.440529 141.238684 
L 610.863535 141.238684 
L 623.28654 141.238684 
L 635.709546 141.238684 
L 648.132552 141.238684 
L 660.555557 141.238684 
L 672.978563 141.238684 
L 685.401568 141.238684 
L 697.824574 141.238684 
" clip-path="url(#p555d573971)" style="fill: none; stroke: #000000; stroke-width: 4; stroke-linecap: square"/>
   </g>
   <g id="line2d_12">
    <path d="M 89.097301 158.622132 
L 101.520307 157.805601 
L 113.943312 156.98907 
L 126.366318 156.172539 
L 138.789323 155.356008 
L 151.212329 154.539477 
L 163.635335 153.722946 
L 176.05834 152.906415 
L 188.481346 152.089884 
L 200.904351 151.273353 
L 213.327357 150.456822 
L 225.750362 149.640291 
L 238.173368 148.82376 
L 250.596373 148.007229 
L 263.019379 147.190698 
L 275.442385 146.374167 
L 287.86539 145.557636 
L 300.288396 144.741105 
L 312.711401 143.924574 
L 325.134407 143.108043 
L 337.557412 142.291512 
L 349.980418 141.474981 
L 362.403424 140.65845 
L 374.826429 139.841919 
L 387.249435 139.025388 
L 399.67244 138.208857 
L 412.095446 137.392326 
L 424.518451 136.575795 
L 436.941457 135.759264 
L 449.364463 134.942733 
L 461.787468 134.126202 
L 474.210474 133.309671 
L 486.633479 132.49314 
L 499.056485 131.676609 
L 511.47949 130.860078 
L 523.902496 130.043548 
L 536.325502 129.227017 
L 548.748507 128.410486 
L 561.171513 127.593955 
L 573.594518 126.777424 
L 586.017524 125.960893 
L 598.440529 125.144362 
L 610.863535 124.327831 
L 623.28654 123.5113 
L 635.709546 122.694769 
L 648.132552 121.878238 
L 660.555557 121.061707 
L 672.978563 120.245176 
L 685.401568 119.428645 
L 697.824574 118.612114 
" clip-path="url(#p555d573971)" style="fill: none; stroke: #1f77b4; stroke-width: 1.5; stroke-linecap: square"/>
   </g>
   <g id="line2d_13">
    <path d="M 89.097301 214.889395 
L 101.520307 212.58352 
L 113.943312 210.277646 
L 126.366318 207.971771 
L 138.789323 205.665896 
L 151.212329 203.360022 
L 163.635335 201.054147 
L 176.05834 198.748272 
L 188.481346 196.442398 
L 200.904351 194.136523 
L 213.327357 191.830649 
L 225.750362 189.524774 
L 238.173368 187.218899 
L 250.596373 184.913025 
L 263.019379 182.60715 
L 275.442385 180.301275 
L 287.86539 177.995401 
L 300.288396 175.689526 
L 312.711401 173.383652 
L 325.134407 171.077777 
L 337.557412 168.771902 
L 349.980418 166.466028 
L 362.403424 164.160153 
L 374.826429 161.854279 
L 387.249435 159.548404 
L 399.67244 157.242529 
L 412.095446 154.936655 
L 424.518451 152.63078 
L 436.941457 150.324905 
L 449.364463 148.019031 
L 461.787468 145.713156 
L 474.210474 143.407282 
L 486.633479 141.101407 
L 499.056485 138.795532 
L 511.47949 136.489658 
L 523.902496 134.183783 
L 536.325502 131.877908 
L 548.748507 129.572034 
L 561.171513 127.266159 
L 573.594518 124.960285 
L 586.017524 122.65441 
L 598.440529 120.348535 
L 610.863535 118.042661 
L 623.28654 115.736786 
L 635.709546 113.430911 
L 648.132552 111.125037 
L 660.555557 108.819162 
L 672.978563 106.513288 
L 685.401568 104.207413 
L 697.824574 101.901538 
" clip-path="url(#p555d573971)" style="fill: none; stroke: #ff7f0e; stroke-width: 1.5; stroke-linecap: square"/>
   </g>
   <g id="line2d_14">
    <path d="M 89.097301 19.8 
L 101.520307 24.942857 
L 113.943312 30.085714 
L 126.366318 35.228571 
L 138.789323 40.371429 
L 151.212329 45.514286 
L 163.635335 50.657143 
L 176.05834 55.8 
L 188.481346 60.942857 
L 200.904351 66.085714 
L 213.327357 71.228571 
L 225.750362 76.371429 
L 238.173368 81.514286 
L 250.596373 86.657143 
L 263.019379 91.8 
L 275.442385 96.942857 
L 287.86539 102.085714 
L 300.288396 107.228571 
L 312.711401 112.371429 
L 325.134407 117.514286 
L 337.557412 122.657143 
L 349.980418 127.8 
L 362.403424 132.942857 
L 374.826429 138.085714 
L 387.249435 143.228571 
L 399.67244 148.371429 
L 412.095446 153.514286 
L 424.518451 158.657143 
L 436.941457 163.8 
L 449.364463 168.942857 
L 461.787468 174.085714 
L 474.210474 179.228571 
L 486.633479 184.371429 
L 499.056485 189.514286 
L 511.47949 194.657143 
L 523.902496 199.8 
L 536.325502 204.942857 
L 548.748507 210.085714 
L 561.171513 215.228571 
L 573.594518 220.371429 
L 586.017524 225.514286 
L 598.440529 230.657143 
L 610.863535 235.8 
L 623.28654 240.942857 
L 635.709546 246.085714 
L 648.132552 251.228571 
L 660.555557 256.371429 
L 672.978563 261.514286 
L 685.401568 266.657143 
L 697.824574 271.8 
" clip-path="url(#p555d573971)" style="fill: none; stroke: #2ca02c; stroke-width: 1.5; stroke-linecap: square"/>
   </g>
   <g id="line2d_15">
    <path d="M 89.097301 195.272441 
L 101.520307 192.834842 
L 113.943312 190.397243 
L 126.366318 187.959644 
L 138.789323 185.522045 
L 151.212329 183.084445 
L 163.635335 180.646846 
L 176.05834 178.209247 
L 188.481346 175.771648 
L 200.904351 173.334048 
L 213.327357 170.896449 
L 225.750362 168.45885 
L 238.173368 166.021251 
L 250.596373 163.583652 
L 263.019379 161.146052 
L 275.442385 158.708453 
L 287.86539 156.270854 
L 300.288396 153.833255 
L 312.711401 151.395655 
L 325.134407 148.958056 
L 337.557412 146.520457 
L 349.980418 144.082858 
L 362.403424 141.645259 
L 374.826429 139.207659 
L 387.249435 136.77006 
L 399.67244 134.332461 
L 412.095446 131.894862 
L 424.518451 129.457262 
L 436.941457 127.019663 
L 449.364463 124.582064 
L 461.787468 122.144465 
L 474.210474 119.706865 
L 486.633479 117.269266 
L 499.056485 114.831667 
L 511.47949 112.394068 
L 523.902496 109.956469 
L 536.325502 107.518869 
L 548.748507 105.08127 
L 561.171513 102.643671 
L 573.594518 100.206072 
L 586.017524 97.768472 
L 598.440529 95.330873 
L 610.863535 92.893274 
L 623.28654 90.455675 
L 635.709546 88.018076 
L 648.132552 85.580476 
L 660.555557 83.142877 
L 672.978563 80.705278 
L 685.401568 78.267679 
L 697.824574 75.830079 
" clip-path="url(#p555d573971)" style="fill: none; stroke: #d62728; stroke-width: 1.5; stroke-linecap: square"/>
   </g>
   <g id="line2d_16">
    <path d="M 89.097301 152.300977 
L 101.520307 152.253254 
L 113.943312 152.205532 
L 126.366318 152.15781 
L 138.789323 152.110087 
L 151.212329 152.062365 
L 163.635335 152.014643 
L 176.05834 151.96692 
L 188.481346 151.919198 
L 200.904351 151.871476 
L 213.327357 151.823753 
L 225.750362 151.776031 
L 238.173368 151.728308 
L 250.596373 151.680586 
L 263.019379 151.632864 
L 275.442385 151.585141 
L 287.86539 151.537419 
L 300.288396 151.489697 
L 312.711401 151.441974 
L 325.134407 151.394252 
L 337.557412 151.34653 
L 349.980418 151.298807 
L 362.403424 151.251085 
L 374.826429 151.203363 
L 387.249435 151.15564 
L 399.67244 151.107918 
L 412.095446 151.060195 
L 424.518451 151.012473 
L 436.941457 150.964751 
L 449.364463 150.917028 
L 461.787468 150.869306 
L 474.210474 150.821584 
L 486.633479 150.773861 
L 499.056485 150.726139 
L 511.47949 150.678417 
L 523.902496 150.630694 
L 536.325502 150.582972 
L 548.748507 150.535249 
L 561.171513 150.487527 
L 573.594518 150.439805 
L 586.017524 150.392082 
L 598.440529 150.34436 
L 610.863535 150.296638 
L 623.28654 150.248915 
L 635.709546 150.201193 
L 648.132552 150.153471 
L 660.555557 150.105748 
L 672.978563 150.058026 
L 685.401568 150.010303 
L 697.824574 149.962581 
" clip-path="url(#p555d573971)" style="fill: none; stroke: #9467bd; stroke-width: 1.5; stroke-linecap: square"/>
   </g>
   <g id="line2d_17">
    <path d="M 89.097301 77.096709 
L 101.520307 79.853846 
L 113.943312 82.610983 
L 126.366318 85.36812 
L 138.789323 88.125257 
L 151.212329 90.882394 
L 163.635335 93.639531 
L 176.05834 96.396668 
L 188.481346 99.153805 
L 200.904351 101.910942 
L 213.327357 104.668079 
L 225.750362 107.425216 
L 238.173368 110.182353 
L 250.596373 112.93949 
L 263.019379 115.696627 
L 275.442385 118.453764 
L 287.86539 121.210901 
L 300.288396 123.968038 
L 312.711401 126.725175 
L 325.134407 129.482312 
L 337.557412 132.239449 
L 349.980418 134.996586 
L 362.403424 137.753723 
L 374.826429 140.51086 
L 387.249435 143.267997 
L 399.67244 146.025134 
L 412.095446 148.782271 
L 424.518451 151.539408 
L 436.941457 154.296545 
L 449.364463 157.053682 
L 461.787468 159.810819 
L 474.210474 162.567956 
L 486.633479 165.325093 
L 499.056485 168.08223 
L 511.47949 170.839367 
L 523.902496 173.596504 
L 536.325502 176.353641 
L 548.748507 179.110778 
L 561.171513 181.867915 
L 573.594518 184.625052 
L 586.017524 187.382189 
L 598.440529 190.139326 
L 610.863535 192.896463 
L 623.28654 195.6536 
L 635.709546 198.410737 
L 648.132552 201.167874 
L 660.555557 203.925011 
L 672.978563 206.682148 
L 685.401568 209.439285 
L 697.824574 212.196422 
" clip-path="url(#p555d573971)" style="fill: none; stroke: #8c564b; stroke-width: 1.5; stroke-linecap: square"/>
   </g>
   <g id="line2d_18">
    <path d="M 89.097301 152.14199 
L 101.520307 151.37259 
L 113.943312 150.603191 
L 126.366318 149.833792 
L 138.789323 149.064393 
L 151.212329 148.294994 
L 163.635335 147.525595 
L 176.05834 146.756196 
L 188.481346 145.986797 
L 200.904351 145.217398 
L 213.327357 144.447998 
L 225.750362 143.678599 
L 238.173368 142.9092 
L 250.596373 142.139801 
L 263.019379 141.370402 
L 275.442385 140.601003 
L 287.86539 139.831604 
L 300.288396 139.062205 
L 312.711401 138.292806 
L 325.134407 137.523406 
L 337.557412 136.754007 
L 349.980418 135.984608 
L 362.403424 135.215209 
L 374.826429 134.44581 
L 387.249435 133.676411 
L 399.67244 132.907012 
L 412.095446 132.137613 
L 424.518451 131.368214 
L 436.941457 130.598815 
L 449.364463 129.829415 
L 461.787468 129.060016 
L 474.210474 128.290617 
L 486.633479 127.521218 
L 499.056485 126.751819 
L 511.47949 125.98242 
L 523.902496 125.213021 
L 536.325502 124.443622 
L 548.748507 123.674223 
L 561.171513 122.904823 
L 573.594518 122.135424 
L 586.017524 121.366025 
L 598.440529 120.596626 
L 610.863535 119.827227 
L 623.28654 119.057828 
L 635.709546 118.288429 
L 648.132552 117.51903 
L 660.555557 116.749631 
L 672.978563 115.980231 
L 685.401568 115.210832 
L 697.824574 114.441433 
" clip-path="url(#p555d573971)" style="fill: none; stroke: #e377c2; stroke-width: 1.5; stroke-linecap: square"/>
   </g>
   <g id="line2d_19">
    <path d="M 89.097301 120.985161 
L 101.520307 122.131253 
L 113.943312 123.277345 
L 126.366318 124.423436 
L 138.789323 125.569528 
L 151.212329 126.71562 
L 163.635335 127.861712 
L 176.05834 129.007803 
L 188.481346 130.153895 
L 200.904351 131.299987 
L 213.327357 132.446078 
L 225.750362 133.59217 
L 238.173368 134.738262 
L 250.596373 135.884353 
L 263.019379 137.030445 
L 275.442385 138.176537 
L 287.86539 139.322628 
L 300.288396 140.46872 
L 312.711401 141.614812 
L 325.134407 142.760903 
L 337.557412 143.906995 
L 349.980418 145.053087 
L 362.403424 146.199178 
L 374.826429 147.34527 
L 387.249435 148.491362 
L 399.67244 149.637453 
L 412.095446 150.783545 
L 424.518451 151.929637 
L 436.941457 153.075729 
L 449.364463 154.22182 
L 461.787468 155.367912 
L 474.210474 156.514004 
L 486.633479 157.660095 
L 499.056485 158.806187 
L 511.47949 159.952279 
L 523.902496 161.09837 
L 536.325502 162.244462 
L 548.748507 163.390554 
L 561.171513 164.536645 
L 573.594518 165.682737 
L 586.017524 166.828829 
L 598.440529 167.97492 
L 610.863535 169.121012 
L 623.28654 170.267104 
L 635.709546 171.413195 
L 648.132552 172.559287 
L 660.555557 173.705379 
L 672.978563 174.851471 
L 685.401568 175.997562 
L 697.824574 177.143654 
" clip-path="url(#p555d573971)" style="fill: none; stroke: #7f7f7f; stroke-width: 1.5; stroke-linecap: square"/>
   </g>
   <g id="line2d_20">
    <path d="M 89.097301 121.947282 
L 101.520307 123.115591 
L 113.943312 124.283899 
L 126.366318 125.452207 
L 138.789323 126.620516 
L 151.212329 127.788824 
L 163.635335 128.957133 
L 176.05834 130.125441 
L 188.481346 131.29375 
L 200.904351 132.462058 
L 213.327357 133.630366 
L 225.750362 134.798675 
L 238.173368 135.966983 
L 250.596373 137.135292 
L 263.019379 138.3036 
L 275.442385 139.471908 
L 287.86539 140.640217 
L 300.288396 141.808525 
L 312.711401 142.976834 
L 325.134407 144.145142 
L 337.557412 145.313451 
L 349.980418 146.481759 
L 362.403424 147.650067 
L 374.826429 148.818376 
L 387.249435 149.986684 
L 399.67244 151.154993 
L 412.095446 152.323301 
L 424.518451 153.491609 
L 436.941457 154.659918 
L 449.364463 155.828226 
L 461.787468 156.996535 
L 474.210474 158.164843 
L 486.633479 159.333152 
L 499.056485 160.50146 
L 511.47949 161.669768 
L 523.902496 162.838077 
L 536.325502 164.006385 
L 548.748507 165.174694 
L 561.171513 166.343002 
L 573.594518 167.51131 
L 586.017524 168.679619 
L 598.440529 169.847927 
L 610.863535 171.016236 
L 623.28654 172.184544 
L 635.709546 173.352853 
L 648.132552 174.521161 
L 660.555557 175.689469 
L 672.978563 176.857778 
L 685.401568 178.026086 
L 697.824574 179.194395 
" clip-path="url(#p555d573971)" style="fill: none; stroke: #bcbd22; stroke-width: 1.5; stroke-linecap: square"/>
   </g>
   <g id="line2d_21">
    <path d="M 89.097301 196.588816 
L 101.520307 193.940677 
L 113.943312 191.292539 
L 126.366318 188.6444 
L 138.789323 185.996261 
L 151.212329 183.348122 
L 163.635335 180.699984 
L 176.05834 178.051845 
L 188.481346 175.403706 
L 200.904351 172.755568 
L 213.327357 170.107429 
L 225.750362 167.45929 
L 238.173368 164.811151 
L 250.596373 162.163013 
L 263.019379 159.514874 
L 275.442385 156.866735 
L 287.86539 154.218597 
L 300.288396 151.570458 
L 312.711401 148.922319 
L 325.134407 146.274181 
L 337.557412 143.626042 
L 349.980418 140.977903 
L 362.403424 138.329764 
L 374.826429 135.681626 
L 387.249435 133.033487 
L 399.67244 130.385348 
L 412.095446 127.73721 
L 424.518451 125.089071 
L 436.941457 122.440932 
L 449.364463 119.792793 
L 461.787468 117.144655 
L 474.210474 114.496516 
L 486.633479 111.848377 
L 499.056485 109.200239 
L 511.47949 106.5521 
L 523.902496 103.903961 
L 536.325502 101.255822 
L 548.748507 98.607684 
L 561.171513 95.959545 
L 573.594518 93.311406 
L 586.017524 90.663268 
L 598.440529 88.015129 
L 610.863535 85.36699 
L 623.28654 82.718851 
L 635.709546 80.070713 
L 648.132552 77.422574 
L 660.555557 74.774435 
L 672.978563 72.126297 
L 685.401568 69.478158 
L 697.824574 66.830019 
" clip-path="url(#p555d573971)" style="fill: none; stroke: #17becf; stroke-width: 1.5; stroke-linecap: square"/>
   </g>
   <g id="patch_3">
    <path d="M 58.660938 284.4 
L 58.660938 7.2 
" style="fill: none; stroke: #000000; stroke-width: 0.8; stroke-linejoin: miter; stroke-linecap: square"/>
   </g>
   <g id="patch_4">
    <path d="M 728.260938 284.4 
L 728.260938 7.2 
" style="fill: none; stroke: #000000; stroke-width: 0.8; stroke-linejoin: miter; stroke-linecap: square"/>
   </g>
   <g id="patch_5">
    <path d="M 58.660937 284.4 
L 728.260937 284.4 
" style="fill: none; stroke: #000000; stroke-width: 0.8; stroke-linejoin: miter; stroke-linecap: square"/>
   </g>
   <g id="patch_6">
    <path d="M 58.660937 7.2 
L 728.260937 7.2 
" style="fill: none; stroke: #000000; stroke-width: 0.8; stroke-linejoin: miter; stroke-linecap: square"/>
   </g>
  </g>
 </g>
 <defs>
  <clipPath id="p555d573971">
   <rect x="58.660938" y="7.2" width="669.6" height="277.2"/>
  </clipPath>
 </defs>
</svg>
