<?xml version="1.0" encoding="utf-8" standalone="no"?>
<!DOCTYPE svg PUBLIC "-//W3C//DTD SVG 1.1//EN"
  "http://www.w3.org/Graphics/SVG/1.1/DTD/svg11.dtd">
<svg xmlns:xlink="http://www.w3.org/1999/xlink" width="715.282813pt" height="308.278125pt" viewBox="0 0 715.282813 308.278125" xmlns="http://www.w3.org/2000/svg" version="1.1">
 <metadata>
  <rdf:RDF xmlns:dc="http://purl.org/dc/elements/1.1/" xmlns:cc="http://creativecommons.org/ns#" xmlns:rdf="http://www.w3.org/1999/02/22-rdf-syntax-ns#">
   <cc:Work>
    <dc:type rdf:resource="http://purl.org/dc/dcmitype/StillImage"/>
    <dc:date>2024-07-03T09:51:53.394814</dc:date>
    <dc:format>image/svg+xml</dc:format>
    <dc:creator>
     <cc:Agent>
      <dc:title>Matplotlib v3.8.4, https://matplotlib.org/</dc:title>
     </cc:Agent>
    </dc:creator>
   </cc:Work>
  </rdf:RDF>
 </metadata>
 <defs>
  <style type="text/css">*{stroke-linejoin: round; stroke-linecap: butt}</style>
 </defs>
 <g id="figure_1">
  <g id="patch_1">
   <path d="M 0 308.278125 
L 715.282813 308.278125 
L 715.282813 0 
L 0 0 
z
" style="fill: #ffffff"/>
  </g>
  <g id="axes_1">
   <g id="patch_2">
    <path d="M 38.482813 284.4 
L 708.082813 284.4 
L 708.082813 7.2 
L 38.482813 7.2 
z
" style="fill: #ffffff"/>
   </g>
   <g id="matplotlib.axis_1">
    <g id="xtick_1">
     <g id="line2d_1">
      <defs>
       <path id="m0c7a169799" d="M 0 0 
L 0 3.5 
" style="stroke: #000000; stroke-width: 0.8"/>
      </defs>
      <g>
       <use xlink:href="#m0c7a169799" x="68.919176" y="284.4" style="stroke: #000000; stroke-width: 0.8"/>
      </g>
     </g>
     <g id="text_1">
      <!-- 0 -->
      <g transform="translate(65.737926 298.998438) scale(0.1 -0.1)">
       <defs>
        <path id="DejaVuSans-30" d="M 2034 4250 
Q 1547 4250 1301 3770 
Q 1056 3291 1056 2328 
Q 1056 1369 1301 889 
Q 1547 409 2034 409 
Q 2525 409 2770 889 
Q 3016 1369 3016 2328 
Q 3016 3291 2770 3770 
Q 2525 4250 2034 4250 
z
M 2034 4750 
Q 2819 4750 3233 4129 
Q 3647 3509 3647 2328 
Q 3647 1150 3233 529 
Q 2819 -91 2034 -91 
Q 1250 -91 836 529 
Q 422 1150 422 2328 
Q 422 3509 836 4129 
Q 1250 4750 2034 4750 
z
" transform="scale(0.015625)"/>
       </defs>
       <use xlink:href="#DejaVuSans-30"/>
      </g>
     </g>
    </g>
    <g id="xtick_2">
     <g id="line2d_2">
      <g>
       <use xlink:href="#m0c7a169799" x="190.664631" y="284.4" style="stroke: #000000; stroke-width: 0.8"/>
      </g>
     </g>
     <g id="text_2">
      <!-- 1 -->
      <g transform="translate(187.483381 298.998438) scale(0.1 -0.1)">
       <defs>
        <path id="DejaVuSans-31" d="M 794 531 
L 1825 531 
L 1825 4091 
L 703 3866 
L 703 4441 
L 1819 4666 
L 2450 4666 
L 2450 531 
L 3481 531 
L 3481 0 
L 794 0 
L 794 531 
z
" transform="scale(0.015625)"/>
       </defs>
       <use xlink:href="#DejaVuSans-31"/>
      </g>
     </g>
    </g>
    <g id="xtick_3">
     <g id="line2d_3">
      <g>
       <use xlink:href="#m0c7a169799" x="312.410085" y="284.4" style="stroke: #000000; stroke-width: 0.8"/>
      </g>
     </g>
     <g id="text_3">
      <!-- 2 -->
      <g transform="translate(309.228835 298.998438) scale(0.1 -0.1)">
       <defs>
        <path id="DejaVuSans-32" d="M 1228 531 
L 3431 531 
L 3431 0 
L 469 0 
L 469 531 
Q 828 903 1448 1529 
Q 2069 2156 2228 2338 
Q 2531 2678 2651 2914 
Q 2772 3150 2772 3378 
Q 2772 3750 2511 3984 
Q 2250 4219 1831 4219 
Q 1534 4219 1204 4116 
Q 875 4013 500 3803 
L 500 4441 
Q 881 4594 1212 4672 
Q 1544 4750 1819 4750 
Q 2544 4750 2975 4387 
Q 3406 4025 3406 3419 
Q 3406 3131 3298 2873 
Q 3191 2616 2906 2266 
Q 2828 2175 2409 1742 
Q 1991 1309 1228 531 
z
" transform="scale(0.015625)"/>
       </defs>
       <use xlink:href="#DejaVuSans-32"/>
      </g>
     </g>
    </g>
    <g id="xtick_4">
     <g id="line2d_4">
      <g>
       <use xlink:href="#m0c7a169799" x="434.15554" y="284.4" style="stroke: #000000; stroke-width: 0.8"/>
      </g>
     </g>
     <g id="text_4">
      <!-- 3 -->
      <g transform="translate(430.97429 298.998438) scale(0.1 -0.1)">
       <defs>
        <path id="DejaVuSans-33" d="M 2597 2516 
Q 3050 2419 3304 2112 
Q 3559 1806 3559 1356 
Q 3559 666 3084 287 
Q 2609 -91 1734 -91 
Q 1441 -91 1130 -33 
Q 819 25 488 141 
L 488 750 
Q 750 597 1062 519 
Q 1375 441 1716 441 
Q 2309 441 2620 675 
Q 2931 909 2931 1356 
Q 2931 1769 2642 2001 
Q 2353 2234 1838 2234 
L 1294 2234 
L 1294 2753 
L 1863 2753 
Q 2328 2753 2575 2939 
Q 2822 3125 2822 3475 
Q 2822 3834 2567 4026 
Q 2313 4219 1838 4219 
Q 1578 4219 1281 4162 
Q 984 4106 628 3988 
L 628 4550 
Q 988 4650 1302 4700 
Q 1616 4750 1894 4750 
Q 2613 4750 3031 4423 
Q 3450 4097 3450 3541 
Q 3450 3153 3228 2886 
Q 3006 2619 2597 2516 
z
" transform="scale(0.015625)"/>
       </defs>
       <use xlink:href="#DejaVuSans-33"/>
      </g>
     </g>
    </g>
    <g id="xtick_5">
     <g id="line2d_5">
      <g>
       <use xlink:href="#m0c7a169799" x="555.900994" y="284.4" style="stroke: #000000; stroke-width: 0.8"/>
      </g>
     </g>
     <g id="text_5">
      <!-- 4 -->
      <g transform="translate(552.719744 298.998438) scale(0.1 -0.1)">
       <defs>
        <path id="DejaVuSans-34" d="M 2419 4116 
L 825 1625 
L 2419 1625 
L 2419 4116 
z
M 2253 4666 
L 3047 4666 
L 3047 1625 
L 3713 1625 
L 3713 1100 
L 3047 1100 
L 3047 0 
L 2419 0 
L 2419 1100 
L 313 1100 
L 313 1709 
L 2253 4666 
z
" transform="scale(0.015625)"/>
       </defs>
       <use xlink:href="#DejaVuSans-34"/>
      </g>
     </g>
    </g>
    <g id="xtick_6">
     <g id="line2d_6">
      <g>
       <use xlink:href="#m0c7a169799" x="677.646449" y="284.4" style="stroke: #000000; stroke-width: 0.8"/>
      </g>
     </g>
     <g id="text_6">
      <!-- 5 -->
      <g transform="translate(674.465199 298.998438) scale(0.1 -0.1)">
       <defs>
        <path id="DejaVuSans-35" d="M 691 4666 
L 3169 4666 
L 3169 4134 
L 1269 4134 
L 1269 2991 
Q 1406 3038 1543 3061 
Q 1681 3084 1819 3084 
Q 2600 3084 3056 2656 
Q 3513 2228 3513 1497 
Q 3513 744 3044 326 
Q 2575 -91 1722 -91 
Q 1428 -91 1123 -41 
Q 819 9 494 109 
L 494 744 
Q 775 591 1075 516 
Q 1375 441 1709 441 
Q 2250 441 2565 725 
Q 2881 1009 2881 1497 
Q 2881 1984 2565 2268 
Q 2250 2553 1709 2553 
Q 1456 2553 1204 2497 
Q 953 2441 691 2322 
L 691 4666 
z
" transform="scale(0.015625)"/>
       </defs>
       <use xlink:href="#DejaVuSans-35"/>
      </g>
     </g>
    </g>
   </g>
   <g id="matplotlib.axis_2">
    <g id="ytick_1">
     <g id="line2d_7">
      <defs>
       <path id="ma9ef46e4d0" d="M 0 0 
L -3.5 0 
" style="stroke: #000000; stroke-width: 0.8"/>
      </defs>
      <g>
       <use xlink:href="#ma9ef46e4d0" x="38.482813" y="273.888212" style="stroke: #000000; stroke-width: 0.8"/>
      </g>
     </g>
     <g id="text_7">
      <!-- −2.0 -->
      <g transform="translate(7.2 277.687431) scale(0.1 -0.1)">
       <defs>
        <path id="DejaVuSans-2212" d="M 678 2272 
L 4684 2272 
L 4684 1741 
L 678 1741 
L 678 2272 
z
" transform="scale(0.015625)"/>
        <path id="DejaVuSans-2e" d="M 684 794 
L 1344 794 
L 1344 0 
L 684 0 
L 684 794 
z
" transform="scale(0.015625)"/>
       </defs>
       <use xlink:href="#DejaVuSans-2212"/>
       <use xlink:href="#DejaVuSans-32" x="83.789062"/>
       <use xlink:href="#DejaVuSans-2e" x="147.412109"/>
       <use xlink:href="#DejaVuSans-30" x="179.199219"/>
      </g>
     </g>
    </g>
    <g id="ytick_2">
     <g id="line2d_8">
      <g>
       <use xlink:href="#ma9ef46e4d0" x="38.482813" y="239.09652" style="stroke: #000000; stroke-width: 0.8"/>
      </g>
     </g>
     <g id="text_8">
      <!-- −1.5 -->
      <g transform="translate(7.2 242.895739) scale(0.1 -0.1)">
       <use xlink:href="#DejaVuSans-2212"/>
       <use xlink:href="#DejaVuSans-31" x="83.789062"/>
       <use xlink:href="#DejaVuSans-2e" x="147.412109"/>
       <use xlink:href="#DejaVuSans-35" x="179.199219"/>
      </g>
     </g>
    </g>
    <g id="ytick_3">
     <g id="line2d_9">
      <g>
       <use xlink:href="#ma9ef46e4d0" x="38.482813" y="204.304828" style="stroke: #000000; stroke-width: 0.8"/>
      </g>
     </g>
     <g id="text_9">
      <!-- −1.0 -->
      <g transform="translate(7.2 208.104047) scale(0.1 -0.1)">
       <use xlink:href="#DejaVuSans-2212"/>
       <use xlink:href="#DejaVuSans-31" x="83.789062"/>
       <use xlink:href="#DejaVuSans-2e" x="147.412109"/>
       <use xlink:href="#DejaVuSans-30" x="179.199219"/>
      </g>
     </g>
    </g>
    <g id="ytick_4">
     <g id="line2d_10">
      <g>
       <use xlink:href="#ma9ef46e4d0" x="38.482813" y="169.513136" style="stroke: #000000; stroke-width: 0.8"/>
      </g>
     </g>
     <g id="text_10">
      <!-- −0.5 -->
      <g transform="translate(7.2 173.312355) scale(0.1 -0.1)">
       <use xlink:href="#DejaVuSans-2212"/>
       <use xlink:href="#DejaVuSans-30" x="83.789062"/>
       <use xlink:href="#DejaVuSans-2e" x="147.412109"/>
       <use xlink:href="#DejaVuSans-35" x="179.199219"/>
      </g>
     </g>
    </g>
    <g id="ytick_5">
     <g id="line2d_11">
      <g>
       <use xlink:href="#ma9ef46e4d0" x="38.482813" y="134.721444" style="stroke: #000000; stroke-width: 0.8"/>
      </g>
     </g>
     <g id="text_11">
      <!-- 0.0 -->
      <g transform="translate(15.579688 138.520663) scale(0.1 -0.1)">
       <use xlink:href="#DejaVuSans-30"/>
       <use xlink:href="#DejaVuSans-2e" x="63.623047"/>
       <use xlink:href="#DejaVuSans-30" x="95.410156"/>
      </g>
     </g>
    </g>
    <g id="ytick_6">
     <g id="line2d_12">
      <g>
       <use xlink:href="#ma9ef46e4d0" x="38.482813" y="99.929752" style="stroke: #000000; stroke-width: 0.8"/>
      </g>
     </g>
     <g id="text_12">
      <!-- 0.5 -->
      <g transform="translate(15.579688 103.728971) scale(0.1 -0.1)">
       <use xlink:href="#DejaVuSans-30"/>
       <use xlink:href="#DejaVuSans-2e" x="63.623047"/>
       <use xlink:href="#DejaVuSans-35" x="95.410156"/>
      </g>
     </g>
    </g>
    <g id="ytick_7">
     <g id="line2d_13">
      <g>
       <use xlink:href="#ma9ef46e4d0" x="38.482813" y="65.13806" style="stroke: #000000; stroke-width: 0.8"/>
      </g>
     </g>
     <g id="text_13">
      <!-- 1.0 -->
      <g transform="translate(15.579688 68.937279) scale(0.1 -0.1)">
       <use xlink:href="#DejaVuSans-31"/>
       <use xlink:href="#DejaVuSans-2e" x="63.623047"/>
       <use xlink:href="#DejaVuSans-30" x="95.410156"/>
      </g>
     </g>
    </g>
    <g id="ytick_8">
     <g id="line2d_14">
      <g>
       <use xlink:href="#ma9ef46e4d0" x="38.482813" y="30.346368" style="stroke: #000000; stroke-width: 0.8"/>
      </g>
     </g>
     <g id="text_14">
      <!-- 1.5 -->
      <g transform="translate(15.579688 34.145587) scale(0.1 -0.1)">
       <use xlink:href="#DejaVuSans-31"/>
       <use xlink:href="#DejaVuSans-2e" x="63.623047"/>
       <use xlink:href="#DejaVuSans-35" x="95.410156"/>
      </g>
     </g>
    </g>
   </g>
   <g id="line2d_15">
    <path d="M 68.919176 49.744264 
L 81.342182 54.16213 
L 93.765187 58.425797 
L 106.188193 62.22717 
L 118.611198 65.311015 
L 131.034204 67.50074 
L 143.45721 68.717844 
L 155.880215 68.992802 
L 168.303221 68.466431 
L 180.726226 67.380744 
L 193.149232 66.059725 
L 205.572237 64.880852 
L 217.995243 64.239255 
L 230.418248 64.507573 
L 242.841254 65.99491 
L 255.26426 68.909684 
L 267.687265 73.330632 
L 280.110271 79.190361 
L 292.533276 86.27437 
L 304.956282 94.237177 
L 317.379287 102.634526 
L 329.802293 110.968961 
L 342.225299 118.743668 
L 354.648304 125.518241 
L 367.07131 130.959505 
L 379.494315 134.880984 
L 391.917321 137.265991 
L 404.340326 138.271656 
L 416.763332 138.213472 
L 429.186338 137.53272 
L 441.609343 136.751056 
L 454.032349 136.41799 
L 466.455354 137.057342 
L 478.87836 139.118512 
L 491.301365 142.937051 
L 503.724371 148.707576 
L 516.147377 156.470237 
L 528.570382 166.11035 
L 540.993388 177.369526 
L 553.416393 189.865994 
L 565.839399 203.121346 
L 578.262404 216.59112 
L 590.68541 229.697186 
L 603.108415 241.859961 
L 615.531421 252.529338 
L 627.954427 261.2132 
L 640.377432 267.502628 
L 652.800438 271.092987 
L 665.223443 271.8 
L 677.646449 269.56977 
" clip-path="url(#p72bcba61b0)" style="fill: none; stroke: #1f77b4; stroke-opacity: 0.5; stroke-width: 1.5; stroke-linecap: square"/>
   </g>
   <g id="line2d_16">
    <path d="M 68.919176 87.730726 
L 81.342182 92.272225 
L 93.765187 96.808944 
L 106.188193 101.373306 
L 118.611198 106.011696 
L 131.034204 110.786083 
L 143.45721 115.773561 
L 155.880215 121.06226 
L 168.303221 126.742883 
L 180.726226 132.895981 
L 193.149232 139.576229 
L 205.572237 146.795526 
L 217.995243 154.507234 
L 230.418248 162.594151 
L 242.841254 170.862458 
L 255.26426 179.043341 
L 267.687265 186.803617 
L 280.110271 193.765473 
L 292.533276 199.534892 
L 304.956282 203.736894 
L 317.379287 206.05495 
L 329.802293 206.270498 
L 342.225299 204.298145 
L 354.648304 200.211301 
L 367.07131 194.253778 
L 379.494315 186.833781 
L 391.917321 178.498645 
L 404.340326 169.891467 
L 416.763332 161.693347 
L 429.186338 154.557353 
L 441.609343 149.042672 
L 454.032349 145.557326 
L 466.455354 144.317777 
L 478.87836 145.331079 
L 491.301365 148.402513 
L 503.724371 153.167534 
L 516.147377 159.143348 
L 528.570382 165.792507 
L 540.993388 172.588978 
L 553.416393 179.077443 
L 565.839399 184.917535 
L 578.262404 189.907985 
L 590.68541 193.9889 
L 603.108415 197.22417 
L 615.531421 199.769033 
L 627.954427 201.829778 
L 640.377432 203.623148 
L 652.800438 205.342006 
L 665.223443 207.131916 
L 677.646449 209.080573 
" clip-path="url(#p72bcba61b0)" style="fill: none; stroke: #ff7f0e; stroke-opacity: 0.5; stroke-width: 1.5; stroke-linecap: square"/>
   </g>
   <g id="line2d_17">
    <path d="M 68.919176 129.288546 
L 81.342182 131.256909 
L 93.765187 133.82074 
L 106.188193 136.936057 
L 118.611198 140.494122 
L 131.034204 144.338477 
L 143.45721 148.286255 
L 155.880215 152.149982 
L 168.303221 155.75694 
L 180.726226 158.964149 
L 193.149232 161.668222 
L 205.572237 163.81012 
L 217.995243 165.376076 
L 230.418248 166.395454 
L 242.841254 166.936606 
L 255.26426 167.101421 
L 267.687265 167.018483 
L 280.110271 166.834991 
L 292.533276 166.707154 
L 304.956282 166.789206 
L 317.379287 167.221388 
L 329.802293 168.1178 
L 342.225299 169.555115 
L 354.648304 171.563542 
L 367.07131 174.121325 
L 379.494315 177.153627 
L 391.917321 180.536434 
L 404.340326 184.105233 
L 416.763332 187.667697 
L 429.186338 191.018977 
L 441.609343 193.957636 
L 454.032349 196.300217 
L 466.455354 197.89251 
L 478.87836 198.616153 
L 491.301365 198.389888 
L 503.724371 197.165732 
L 516.147377 194.921415 
L 528.570382 191.650796 
L 540.993388 187.354607 
L 553.416393 182.033724 
L 565.839399 175.686535 
L 578.262404 168.311224 
L 590.68541 159.912938 
L 603.108415 150.514419 
L 615.531421 140.168324 
L 627.954427 128.968866 
L 640.377432 117.060258 
L 652.800438 104.640184 
L 665.223443 91.957015 
L 677.646449 79.300518 
" clip-path="url(#p72bcba61b0)" style="fill: none; stroke: #2ca02c; stroke-opacity: 0.5; stroke-width: 1.5; stroke-linecap: square"/>
   </g>
   <g id="line2d_18">
    <path d="M 68.919176 76.452405 
L 81.342182 87.430163 
L 93.765187 98.784319 
L 106.188193 110.456612 
L 118.611198 122.369368 
L 131.034204 134.408385 
L 143.45721 146.412885 
L 155.880215 158.174406 
L 168.303221 169.444948 
L 180.726226 179.95345 
L 193.149232 189.428437 
L 205.572237 197.623806 
L 217.995243 204.344122 
L 230.418248 209.46644 
L 242.841254 212.955379 
L 255.26426 214.87 
L 267.687265 215.361157 
L 280.110271 214.660011 
L 292.533276 213.058561 
L 304.956282 210.884609 
L 317.379287 208.473425 
L 329.802293 206.138966 
L 342.225299 204.147223 
L 354.648304 202.693842 
L 367.07131 201.887752 
L 379.494315 201.74189 
L 391.917321 202.171595 
L 404.340326 203.000648 
L 416.763332 203.974571 
L 429.186338 204.78032 
L 441.609343 205.071199 
L 454.032349 204.495298 
L 466.455354 202.72527 
L 478.87836 199.487132 
L 491.301365 194.585057 
L 503.724371 187.919728 
L 516.147377 179.497674 
L 528.570382 169.430371 
L 540.993388 157.922748 
L 553.416393 145.252501 
L 565.839399 131.74304 
L 578.262404 117.733911 
L 590.68541 103.553544 
L 603.108415 89.498383 
L 615.531421 75.822005 
L 627.954427 62.735404 
L 640.377432 50.417971 
L 652.800438 39.035855 
L 665.223443 28.763139 
L 677.646449 19.8 
" clip-path="url(#p72bcba61b0)" style="fill: none; stroke: #d62728; stroke-opacity: 0.5; stroke-width: 1.5; stroke-linecap: square"/>
   </g>
   <g id="line2d_19">
    <path d="M 68.919176 159.177848 
L 81.342182 145.365914 
L 93.765187 131.472792 
L 106.188193 117.960372 
L 118.611198 105.246343 
L 131.034204 93.68543 
L 143.45721 83.555137 
L 155.880215 75.04614 
L 168.303221 68.257706 
L 180.726226 63.198429 
L 193.149232 59.792705 
L 205.572237 57.892615 
L 217.995243 57.294775 
L 230.418248 57.760709 
L 242.841254 59.039051 
L 255.26426 60.887547 
L 267.687265 63.092399 
L 280.110271 65.483579 
L 292.533276 67.94451 
L 304.956282 70.41581 
L 317.379287 72.893163 
L 329.802293 75.420284 
L 342.225299 78.077983 
L 354.648304 80.970708 
L 367.07131 84.21173 
L 379.494315 87.908068 
L 391.917321 92.145918 
L 404.340326 96.977295 
L 416.763332 102.408455 
L 429.186338 108.390842 
L 441.609343 114.815305 
L 454.032349 121.510339 
L 466.455354 128.245154 
L 478.87836 134.737838 
L 491.301365 140.668798 
L 503.724371 145.69868 
L 516.147377 149.489606 
L 528.570382 151.728011 
L 540.993388 152.146984 
L 553.416393 150.546047 
L 565.839399 146.806761 
L 578.262404 140.902826 
L 590.68541 132.904373 
L 603.108415 122.976609 
L 615.531421 111.373539 
L 627.954427 98.427893 
L 640.377432 84.538113 
L 652.800438 70.153463 
L 665.223443 55.757586 
L 677.646449 41.850846 
" clip-path="url(#p72bcba61b0)" style="fill: none; stroke: #9467bd; stroke-opacity: 0.5; stroke-width: 1.5; stroke-linecap: square"/>
   </g>
   <g id="patch_3">
    <path d="M 38.482813 284.4 
L 38.482813 7.2 
" style="fill: none; stroke: #000000; stroke-width: 0.8; stroke-linejoin: miter; stroke-linecap: square"/>
   </g>
   <g id="patch_4">
    <path d="M 708.082813 284.4 
L 708.082813 7.2 
" style="fill: none; stroke: #000000; stroke-width: 0.8; stroke-linejoin: miter; stroke-linecap: square"/>
   </g>
   <g id="patch_5">
    <path d="M 38.482813 284.4 
L 708.082813 284.4 
" style="fill: none; stroke: #000000; stroke-width: 0.8; stroke-linejoin: miter; stroke-linecap: square"/>
   </g>
   <g id="patch_6">
    <path d="M 38.482813 7.2 
L 708.082813 7.2 
" style="fill: none; stroke: #000000; stroke-width: 0.8; stroke-linejoin: miter; stroke-linecap: square"/>
   </g>
  </g>
 </g>
 <defs>
  <clipPath id="p72bcba61b0">
   <rect x="38.482813" y="7.2" width="669.6" height="277.2"/>
  </clipPath>
 </defs>
</svg>
